<?xml version="1.0" standalone="no"?>
<!DOCTYPE svg PUBLIC "-//W3C//DTD SVG 1.1//EN" "http://www.w3.org/Graphics/SVG/1.1/DTD/svg11.dtd" >
<!--
2013-9-30: Created.
-->
<svg>
<metadata>
Created by iconfont
</metadata>
<defs>

<font id="iconfont" horiz-adv-x="1024" >
  <font-face
    font-family="iconfont"
    font-weight="500"
    font-stretch="normal"
    units-per-em="1024"
    ascent="896"
    descent="-128"
  />
    <missing-glyph />
    
    <glyph glyph-name="x" unicode="x" horiz-adv-x="1001"
d="M281 543q-27 -1 -53 -1h-83q-18 0 -36.5 -6t-32.5 -18.5t-23 -32t-9 -45.5v-76h912v41q0 16 -0.5 30t-0.5 18q0 13 -5 29t-17 29.5t-31.5 22.5t-49.5 9h-133v-97h-438v97zM955 310v-52q0 -23 0.5 -52t0.5 -58t-10.5 -47.5t-26 -30t-33 -16t-31.5 -4.5q-14 -1 -29.5 -0.5
t-29.5 0.5h-32l-45 128h-439l-44 -128h-29h-34q-20 0 -45 1q-25 0 -41 9.5t-25.5 23t-13.5 29.5t-4 30v167h911zM163 247q-12 0 -21 -8.5t-9 -21.5t9 -21.5t21 -8.5q13 0 22 8.5t9 21.5t-9 21.5t-22 8.5zM316 123q-8 -26 -14 -48q-5 -19 -10.5 -37t-7.5 -25t-3 -15t1 -14.5
t9.5 -10.5t21.5 -4h37h67h81h80h64h36q23 0 34 12t2 38q-5 13 -9.5 30.5t-9.5 34.5q-5 19 -11 39h-368zM336 498v228q0 11 2.5 23t10 21.5t20.5 15.5t34 6h188q31 0 51.5 -14.5t20.5 -52.5v-227h-327z" />
    

    
    <glyph glyph-name="shumiao" unicode="&#983505;" d="M812.032 776.192q50.176 5.12 87.552-8.192t62.464-37.376 36.352-55.808 7.68-62.976-21.504-59.392-51.712-44.544q-45.056-22.528-88.064-40.448t-82.432-29.696-73.216-15.872-60.416 2.048q-13.312-61.44-22.528-134.656t-9.216-150.016q0-35.84 1.536-71.68t3.584-65.536q2.048-33.792 5.12-65.536l-149.504 0q1.024 19.456 3.072 51.2 1.024 26.624 2.048 69.632t1.024 105.472q0 79.872 10.24 152.576t23.552 131.072q-39.936-9.216-84.992 1.024t-90.112 34.304-87.04 59.392-74.752 76.288q-21.504 26.624-28.672 53.248t-2.56 52.224 18.432 48.128 32.256 40.96q16.384 15.36 38.912 23.552t48.64 9.216 53.248-4.096 52.736-16.384q25.6-12.288 54.784-33.28t56.32-48.128 50.176-57.856 38.4-61.44q16.384 28.672 43.008 54.784t58.88 46.592 67.584 34.304 69.12 16.896z"  horiz-adv-x="1024" />

    
    <glyph glyph-name="gouwu" unicode="&#983541;" d="M838.656 702.464q-117.76-9.216-211.968-16.384-39.936-3.072-79.36-6.144t-71.68-5.12-54.272-4.096-26.112-2.048q-5.12-1.024-11.776-1.536t-11.776-2.56l-12.288-4.096-45.056 20.48q5.12 7.168 12.288 13.312 5.12 5.12 12.8 9.728t15.872 5.632q6.144 1.024 32.768 3.072t65.536 5.12q0 13.312 2.56 36.352t12.288 45.568 28.16 39.936 50.176 20.48q36.864 3.072 59.904-11.264t35.84-35.328 17.92-43.008 6.144-34.304q44.032 3.072 73.216 5.12t32.256 3.072q11.264 1.024 25.088-4.096t22.016-13.312q2.048-2.048 5.632-6.144t6.656-8.192q4.096-4.096 7.168-10.24zM555.008 824.32q-19.456-2.048-31.232-13.824t-17.92-28.16-8.192-33.28-2.048-27.136q31.744 2.048 65.024 5.12t65.024 5.12q-1.024 9.216-4.608 25.6t-11.776 31.744-21.504 25.6-32.768 9.216zM955.392 71.68q5.12-28.672-1.536-47.616t-37.376-26.112q-10.24-3.072-44.544-10.24t-81.92-17.408-101.888-22.016-103.936-22.016-89.088-18.432-55.808-11.264q-37.888-8.192-55.808 5.12t-17.92 39.936l0 628.736q0 25.6 10.752 41.472t31.232 16.896q8.192 0 19.968 1.024t23.04 2.048q13.312 1.024 27.648 2.048l9.216-146.432q-1.024-1.024-4.096-1.024-2.048 0-6.144-0.512t-9.216-0.512q-21.504-2.048-20.48-25.6 1.024-9.216 2.048-25.6t1.536-34.304 1.536-34.816 2.048-27.136q1.024-19.456 6.144-22.016t22.528-2.56l14.336 0q6.144 0 11.776 0.512t12.8 1.024 18.432 1.536q21.504 2.048 27.648 9.216t5.12 21.504q0 7.168-1.536 25.088t-3.072 37.376-2.56 36.864-2.048 24.576q-2.048 12.288-5.12 17.408t-11.264 4.096q-4.096 0-8.192-0.512t-8.192-0.512l-8.192 0-9.216 145.408q69.632 6.144 128 10.24 24.576 2.048 49.664 4.096t46.592 3.584 37.888 3.072 24.576 2.56q29.696 2.048 47.104-10.24t21.504-36.864q1.024-8.192 7.168-49.152t15.36-98.304 19.456-123.392 19.456-123.392 15.872-98.304 8.704-49.152zM311.296-17.408q0-14.336 1.536-25.088t3.584-16.896q2.048-8.192 5.12-12.288-25.6 13.312-49.152 26.624-20.48 11.264-40.96 23.04t-34.816 19.968q-26.624 15.36-36.352 36.864t-4.608 45.056q2.048 6.144 9.216 45.056t17.92 94.208 22.528 118.784 22.016 118.784 17.92 95.232 8.704 47.104q4.096 22.528 14.848 34.816t25.088 6.144q8.192-4.096 13.312-9.216 3.072-3.072 4.096-5.12l0-643.072z"  horiz-adv-x="1024" />

    
    <glyph glyph-name="dianpu" unicode="&#983275;" d="M829.220317 771.575176l-7.074116 10.656711L211.680609 782.231887l-7.141654-9.141194C48.983109 574.501752 70.507332 453.583798 97.154225 399.139815c26.740014-54.537104 80.878029-89.831958 137.977491-89.831958l5.146207 0c72.043826 2.867304 119.953999 38.642089 145.190777 64.548108 22.793122-25.90602 65.699328-60.541865 132.855844-60.541865 70.02382 0 113.703645 37.70167 135.579885 63.877843 30.546713-24.907273 90.183975-65.721841 152.687518-65.721841 40.980343 0 76.085886 16.799618 104.681154 49.907667C1017.364371 484.917434 836.949348 759.933021 829.220317 771.575176zM874.641809 392.396227c-19.22383-22.49841-41.49916-33.236985-68.14503-33.236985-60.246129 0-122.821303 54.56064-136.7792 67.51979L669.717579 590.245318c0.023536 0.458441 0.258896 0.799202 0.258896 1.245364 0 13.252839-10.714016 23.967878-23.920806 23.967878-13.227256 0-23.919782-10.715039-23.919782-23.967878l-0.258896 0 0-177.851641c-13.063527-17.811668-46.172599-52.634778-103.552447-52.634778-64.784492 0-98.525967 44.292785-107.666138 58.367339l0 172.120103c0 13.252839-10.715039 23.967878-23.898293 23.967878-13.228279 0-23.943318-10.715039-23.943318-23.967878l0-171.250292c-11.725042-15.249309-52.070936-60.389392-124.465756-63.37233l-3.219321 0 0 0.047072c-31.933293 0-73.688279 19.585057-95.000678 63.232137-21.358447 43.540655-36.843116 141.948943 94.953605 314.397526l561.097208 0C845.996398 655.826965 940.480306 468.774779 874.641809 392.396227zM831.288418 282.16773c-13.277398 0-24.086581-10.761088-24.13263-24.037463l0-0.045025c0-0.048095 0-0.048095 0-0.095167 0 0 0-0.023536 0-0.059352l0-173.505659c0-26.693965-21.641903-48.312332-48.263214-48.312332L552.089555 36.112732c-0.022513 0-0.022513 0-0.046049 0L264.081049 36.112732c-26.623357 0-48.26526 21.618367-48.26526 48.312332l0 173.634596c-0.023536 13.323447-10.80816 24.108071-24.109094 24.108071-13.299911 0-24.084535-10.784624-24.131607-24.108071l0-178.452321c0-50.730405 41.026392-91.804892 91.664699-91.804892l504.492002 0c50.637284 0 91.662653 41.074487 91.662653 91.804892L855.394443 258.130268C855.325881 271.407666 844.562746 282.16773 831.288418 282.16773z"  horiz-adv-x="1024" />

    
    <glyph glyph-name="msnui-more" unicode="&#59001;" d="M169.002 489.682c-57.562 0-104.228-46.646-104.228-104.228 0-57.563 46.666-104.209 104.228-104.209s104.228 46.646 104.228 104.209c0 57.582-46.667 104.228-104.228 104.228zM501.431 489.682c-57.562 0-104.228-46.646-104.228-104.228 0-57.563 46.667-104.209 104.228-104.209s104.228 46.646 104.228 104.209c0 57.582-46.666 104.228-104.228 104.228zM854.638 489.682c-57.563 0-104.23-46.646-104.23-104.228 0-57.563 46.667-104.209 104.23-104.209s104.228 46.646 104.228 104.209c-0.001 57.582-46.666 104.228-104.228 104.228z"  horiz-adv-x="1024" />

    
    <glyph glyph-name="baby" unicode="&#59008;" d="M608 281.6c-38.4-51.2-153.6-51.2-185.6 0C409.6 294.4 384 294.4 377.6 288 364.8 281.6 364.8 256 371.2 243.2c25.6-32 83.2-64 140.8-64 57.6 0 102.4 19.2 140.8 64 6.4 12.8 6.4 25.6-6.4 38.4C640 294.4 614.4 294.4 608 281.6zM876.8 486.4C832 646.4 684.8 761.6 512 761.6S192 646.4 147.2 486.4C102.4 473.6 64 435.2 64 384s38.4-89.6 83.2-102.4c44.8-160 192-281.6 364.8-281.6s320 115.2 364.8 281.6C921.6 294.4 960 332.8 960 384S921.6 473.6 876.8 486.4zM864 345.6l-38.4 6.4L819.2 320c-32-147.2-160-256-307.2-256s-281.6 108.8-307.2 256L198.4 352l-32 0c0 0-6.4 0-6.4 0C147.2 345.6 128 364.8 128 384c0 19.2 19.2 38.4 32 38.4l38.4-6.4L204.8 448c19.2 96 76.8 172.8 160 211.2C384 601.6 428.8 505.6 544 505.6c12.8 0 32 12.8 32 25.6 0 0 6.4 44.8 57.6 64 19.2 6.4 25.6 25.6 19.2 38.4C640 652.8 627.2 659.2 608 652.8 556.8 633.6 531.2 595.2 518.4 569.6 460.8 582.4 435.2 646.4 422.4 684.8 448 691.2 480 697.6 512 697.6c147.2 0 281.6-108.8 307.2-256l6.4-25.6 38.4 6.4C883.2 422.4 896 403.2 896 384 896 364.8 876.8 345.6 864 345.6zM377.6 416m-38.4 0a0.6 0.6 0 1 0 76.8 0 0.6 0.6 0 1 0-76.8 0ZM646.4 416m-38.4 0a0.6 0.6 0 1 0 76.8 0 0.6 0.6 0 1 0-76.8 0Z"  horiz-adv-x="1024" />

    
    <glyph glyph-name="56" unicode="&#58936;" d="M761.354-64.218h-486.487c-91.773 0-166.429 74.655-166.429 166.428l0 422.474c0 91.773 74.656 166.429 166.429 166.429 21.216 0 38.407-17.197 38.407-38.407s-17.191-38.407-38.407-38.407c-49.414 0-89.616-40.202-89.616-89.616v-422.475c0-49.413 40.202-89.615 89.616-89.615l486.487-0c49.408 0 89.617 40.202 89.617 89.615v422.475c0 49.415-40.209 89.616-89.617 89.616-21.215 0-38.405 17.197-38.405 38.407s17.189 38.407 38.405 38.407c91.768 0 166.429-74.656 166.429-166.429v-422.475c-0.001-91.772-74.662-166.427-166.429-166.427zM480.34 652.707h75.539zM555.88 614.301h-75.538c-21.215 0-38.406 17.197-38.406 38.407s17.191 38.407 38.406 38.407h75.538c21.215 0 38.407-17.197 38.407-38.407s-17.192-38.407-38.407-38.407zM671.65 548.338c-21.215 0-38.405 17.197-38.405 38.409 0 91.959-52.723 169.655-115.135 169.655-62.409 0-115.132-77.696-115.132-169.655 0-21.212-17.191-38.409-38.406-38.409-21.216 0-38.407 17.197-38.407 38.409 0 135.905 86.103 246.467 191.945 246.467 105.846 0 191.947-110.562 191.947-246.467-0-21.212-17.192-38.409-38.407-38.409z"  horiz-adv-x="1024" />

    
    <glyph glyph-name="icon" unicode="&#58892;" d="M511.706311 831.979918c-247.272733 0-447.725114-200.453405-447.725114-447.725114s200.452381-447.725114 447.725114-447.725114 447.725114 200.453405 447.725114 447.725114S758.979044 831.979918 511.706311 831.979918zM512.871857 586.105021c54.107315 0 97.970312-57.647955 97.970312-128.756479 0-71.114664-43.862997-128.756479-97.970312-128.756479-54.107315 0-97.968266 57.642838-97.968266 128.756479C414.903591 528.457066 458.764542 586.105021 512.871857 586.105021zM318.803883 176.975946c0 0 10.654664 85.167728 34.767851 101.245915 24.116257 16.07307 93.607958 26.745131 93.607958 26.745131s45.039799-48.143487 64.191998-48.143487c19.125593 0 64.187905 48.143487 64.187905 48.143487s69.498864-10.673084 93.610004-26.745131c28.377304-18.917862 35.440164-101.245915 35.440164-101.245915L318.803883 176.975946z"  horiz-adv-x="1024" />

    
    <glyph glyph-name="qunfengyijianfankui" unicode="&#59332;" d="M512.024246-103.030335M693.163105 568.94167c-5.776955 5.77185-14.675277 6.236355-19.860116 1.066829l-25.127903-25.11897 42.255865-42.914339 25.462244 25.458415c5.184839 5.154213 4.690984 14.042326-1.061724 19.839699L693.163105 568.94167zM459.255778 355.956184 501.860022 313.37491 672.426301 483.960331 630.179368 526.869565ZM512.024246 896C229.236761 896 0 666.763239 0 383.975754c0-282.747926 229.236761-511.974478 512.024246-511.974478 282.778552 0 512.005104 229.226552 512.005104 511.974478C1024.029351 666.763239 794.802798 896 512.024246 896zM739.810069 207.044233c0-25.297625-20.512209-45.809835-45.825148-45.809835L327.367149 161.234398c-25.307834 0-45.820043 20.498172-45.820043 45.809835L281.547105 560.945558c0 25.318043 20.502 45.82132 45.820043 45.82132l235.437385 0c6.654919 0 12.043936-5.389017 12.043936-12.054145 0-6.649815-5.39795-12.047764-12.043936-12.057973L329.780275 582.65476c-13.314943 0-24.117223-10.792071-24.117223-24.115947l0-349.07635c0-13.32898 10.80228-24.115947 24.117223-24.115947l361.803005 0c13.314943 0 24.115947 10.786967 24.115947 24.115947L715.699227 423.430555c0.039559 6.624292 5.423472 11.992892 12.063078 11.992892 6.629397 0.010209 12.023518-5.35839 12.047764-11.992892L739.810069 207.044233zM485.18125 298.769819l17.681795-17.71625-86.427173-23.568495c-3.768356-1.022165-7.781725 0.059977-10.553438 2.781922-2.730878 2.795959-3.81302 6.804224-2.780646 10.577685l23.582532 86.41186 17.686899-17.67669L429.066819 283.441173 485.18125 298.769819zM733.005845 510.310748 503.585324 280.914473l-76.791259 76.78105 229.410312 229.435834c13.653112 13.637799 37.127175 12.371897 52.320553-2.83169l21.668366-21.693888C745.403264 547.436647 746.658957 523.948547 733.005845 510.310748z"  horiz-adv-x="1025" />

    
    <glyph glyph-name="zhengjian" unicode="&#58964;" d="M959.854563 49.627537 64.043107 49.627537 64.043107 721.543689 959.854563 721.543689 959.854563 49.627537zM903.917576 105.618758 903.917576 665.553491 120.006699 665.553491l0-559.934732L903.917576 105.618758M679.955758 245.594767c-77.3159 0-139.976008 62.662155-139.976008 139.978055s62.660108 139.976008 139.976008 139.976008c77.260641 0 139.977032-62.660108 139.977032-139.976008S757.216399 245.594767 679.955758 245.594767zM679.955758 301.585989c46.284139 0 83.932598 37.673018 83.932598 83.986833 0 46.339398-37.647435 84.013439-83.932598 84.013439-46.339398 0-84.014462-37.674041-84.014462-84.013439C595.941296 339.259006 633.61636 301.585989 679.955758 301.585989M511.956509 77.622124 455.978591 77.622124c0 123.737162 100.240005 223.962841 223.977167 223.962841 123.681904 0 223.908606-100.225679 223.908606-223.962841l-55.962569 0c0 92.679819-75.349105 167.971619-167.946037 167.971619C587.275939 245.594767 511.956509 170.302967 511.956509 77.622124M203.993532 413.595039 203.993532 469.586261 427.95535 469.586261 427.95535 413.595039 203.993532 413.595039ZM203.993532 301.585989 203.993532 357.630423 343.969541 357.630423 343.969541 301.585989 203.993532 301.585989Z"  horiz-adv-x="1024" />

    
    <glyph glyph-name="045zhuanqulirun" unicode="&#58925;" d="M685.675 490.147c-150.066 0-271.671-121.624-271.671-271.656 0-150.022 121.64-271.646 271.671-271.646 150.015 0 271.638 121.624 271.638 271.646 0 150.032-121.624 271.656-271.638 271.656zM746.295 255.223c4.555-0.838 8.917-1.265 12.757-1.265h41.268c3.926 0 7.364-1.484 10.225-4.904 2.897-3.298 4.293-6.457 4.293-9.763v-29.664c0-5.898-4.154-8.63-12.075-8.63h-71.543c-3.159 0-6.178-0.837-9.127-2.6-2.861-1.535-4.135-4.117-4.135-7.285 0-3.445 0.070-6.745 0.489-10.443 0.419-3.734 0.576-6.893 0.576-9.196 0-4.921 4.258-6.674 12.198-4.921h70.41c8.079 0 12.075-3.707 12.075-11.211v-27.282c0-8.079-5.881-12.215-17.119-12.215h-15.774c-6.317 0-12.842-0.278-19.857-0.558-6.735-0.568-13.192-0.699-18.81-0.699h-10.924c-7.085 0-10.802-4.154-10.802-12.484v-49.322c0-4.275-3.298-6.309-9.754-6.309h-38.86c-10.453 0-15.706 4.494-15.706 13.533 0 3.445 0.297 10.382 0.646 21.202 0.541 10.643 0.262 18.015-0.592 22.161 0 4.066-0.472 6.797-1.257 8.062-0.699 1.186-3.019 1.762-7.225 1.762h-72.73c-10.504 0-15.774 5.322-15.774 16.124 0 2.321-0.227 5.471-1.134 9.326-0.854 3.576-0.854 7.372 0 11.647 0.908 4.067 2.111 7.782 3.664 11.221 1.675 3.159 4.834 4.415 9.598 3.576h81.158c1.675 0 2.373 2.033 2.373 6.318v23.417c0 4.154-4.834 6.177-14.379 6.177h-70.269c-3.298 0-6.036 0.148-8.48 0.497-2.531 0.409-3.664 2.73-3.664 6.735v15.075c0 6.457-0.401 11.369-1.204 14.798-1.657 4.912-0.401 9.048 3.525 12.197 4.083 3.456 9.388 4.922 15.774 4.922 6.526-0.838 13.611-0.996 21.392-0.568 7.573 0.436 13.54 0.568 17.537 0.568h14.378c4.851 0 6.527 1.753 4.851 4.912-1.553 1.814-6.386 7.992-14.379 18.514-8.218 11.012-16.629 21.961-25.459 33.46-10.539 14.091-22.737 29.324-36.417 45.735-5.618 9.039-4.415 16.551 3.664 22.161 3.979 2.521 8.202 5.61 12.616 9.467 4.484 3.646 9.598 7.154 15.286 10.382 7.992 4.973 15.634 0.507 22.928-13.462 2.531-3.446 7.102-9.326 14.030-18.034 6.876-8.761 13.96-17.729 21.115-27.762 7.154-10.035 14.098-18.811 20.625-26.455 6.527-7.922 10.034-12.765 11.011-14.378 1.536-3.298 4.485-5.322 8.899-6.178 4.502-0.837 7.66 0.568 9.196 3.726 0.714 1.754 4.066 6.798 10.26 15.566 6.020 8.489 12.756 18.103 19.979 28.905 7.294 10.723 14.151 20.695 20.556 30.371 6.595 9.397 10.592 15.435 12.197 17.825 4.013 5.811 7.573 9.457 10.173 11.080 2.879 1.667 7.504 1.178 14.099-1.204 3.996-1.605 8.499-4.066 13.122-7.285 4.973-3.376 8.271-5.906 9.738-7.582 8.916-9.126 11.429-16.908 7.312-23.365-1.553-2.599-6.055-8.76-13.209-18.654-7.556-9.816-15.217-20.258-23.714-31.496-8.62-11.080-16.106-21.463-23-31.496-6.857-9.876-10.662-15.782-11.621-17.248-2.196-4.058-1.341-6.518 3.003-7.504zM401.195 830.71c-184.773 0-334.509-74.292-334.509-165.945 0-91.637 149.734-165.936 334.509-165.936 184.722 0 334.473 74.283 334.473 165.936s-149.752 165.945-334.473 165.945v0zM506.607 456.251c-33.171-5.462-68.541-8.55-105.413-8.55-159.21 0-292.158 55.219-325.958 129.11-5.428-11.849-8.55-24.167-8.55-36.828 0-91.636 149.734-165.954 334.509-165.954 8.987 0 17.781 0.331 26.576 0.68 20.694 32.089 47.462 59.851 78.836 81.541v0zM726.49 501.969c5.793 12.197 9.143 24.891 9.143 37.987 0 12.686-3.106 24.979-8.55 36.827-12.004-26.27-36.783-50.132-70.635-70.042 4.781 0.235 9.44 0.742 14.257 0.742 19.088-0 37.742-1.972 55.785-5.514v0zM401.195 338.51c-159.21 0-292.158 55.22-325.958 129.119-5.428-11.857-8.55-24.167-8.55-36.828 0-89.037 141.464-161.487 318.926-165.553 4.241 25.79 11.813 50.438 22.405 73.428-2.27-0.036-4.538-0.167-6.823-0.167v0zM382.175 229.747c-150.642 4.197-274.481 57.776-306.938 128.699-5.428-11.865-8.55-24.167-8.55-36.836 0-89.533 143.069-162.316 321.962-165.614-4.449 20.154-6.963 41.034-6.963 62.522-0.001 3.769 0.331 7.468 0.488 11.229v0zM75.236 249.246c-5.428-11.857-8.55-24.158-8.55-36.819 0-91.636 149.734-165.955 334.509-165.955 12.441 0 24.657 0.393 36.732 1.056-16.158 22.004-29.123 46.495-38.598 72.66-158.373 0.437-290.432 55.463-324.092 129.057v0zM466.997 14.305c-21.305-2.119-43.24-3.349-65.803-3.349-159.21 0-292.158 55.219-325.958 129.119-5.428-11.858-8.55-24.177-8.55-36.837 0-91.645 149.734-165.945 334.509-165.945 54.46 0 105.727 6.588 151.183 18.052-32.055 14.439-60.865 34.435-85.382 58.961v0zM466.997 14.305z"  horiz-adv-x="1024" />

    
    <glyph glyph-name="cardvip" unicode="&#58986;" d="M59.82555 721.937662l0-120.467699 904.349923 0L964.175473 721.937662c0 14.84101-12.031011 26.870997-26.870997 26.870997L86.696548 748.80866C71.855538 748.80866 59.82555 736.777649 59.82555 721.937662zM964.17445 531.858536 59.824527 531.858536c0 0 0 0 0 0l0-476.482065c0-19.984147 16.200984-36.18513 36.18513-36.18513L927.989319 19.19134c19.984147 0 36.18513 16.200984 36.18513 36.18513L964.17445 531.858536zM387.726625 337.013873c0-4.152577-3.366677-7.520277-7.520277-7.520277l-3.859911 0c-3.096525 0-5.876847-1.899256-7.004531-4.783956l-63.286372-162.000628c-1.12666-2.8847-3.906983-4.783956-7.004531-4.783956l-59.272965 0c-3.040243 0-5.780657 1.829671-6.945179 4.637624l-67.344804 162.293293c-1.164522 2.807952-3.90596 4.637624-6.945179 4.637624l-11.494799 0 0 53.396117 119.939673 0 0-53.396117-8.331759 0c-5.176906 0-8.80555-5.110391-7.099698-9.997702l22.768563-65.22656c2.328022-6.668886 11.734252-6.739495 14.161534-0.105401l23.868617 65.22656c2.588965 7.073092-6.101975 14.748912-14.582113 6.594185l0 56.906058 89.954755 0L387.726625 337.013873 387.726625 337.013873zM561.989531 337.013873c0-4.152577-3.366677-7.520277-7.520277-7.520277l-12.844539 0 0-116.250654 20.364817 0 0-53.396117L434.835549 159.846824l0 53.398164 20.525476 0L455.361025 329.495642l-20.525476 0 0 53.396117 127.153982 0L561.989531 337.013873 561.989531 337.013873zM856.832699 274.175709c-8.125051-10.477632-18.86772-18.066471-32.230052-22.769586-13.148461-4.596691-33.459043-6.894014-60.930721-6.894014l-34.795481 0 0-31.269168 22.449291 0 0-53.396117L620.963691 159.846824l0 53.398164 21.647019 0L642.61071 329.495642l-21.647019 0 0 53.396117 136.775106 0c31.42778 0 54.410214-3.046383 68.948325-9.140171 14.537088-6.201236 25.226544-14.646582 32.069393-25.333992 6.839779-10.69048 10.261715-22.396079 10.261715-35.115776C869.01823 297.585885 864.954681 284.542824 856.832699 274.175709zM764.151857 332.541001c-4.276397 0.961908-11.543917 1.442862-21.806655 1.442862l-5.950526 0c-4.1536 0-7.520277-3.366677-7.520277-7.520277l0-26.809599c0-4.152577 3.366677-7.520277 7.520277-7.520277l9.317203 0c11.757788 0 20.309558 1.38658 25.65531 4.167926 5.130857 2.7793 7.696286 8.178263 7.696286 16.194844 0 5.236258-1.38965 9.673313-4.167926 13.308097C772.222673 329.33396 768.642125 331.579093 764.151857 332.541001z"  horiz-adv-x="1024" />

    
    <glyph glyph-name="shouji" unicode="&#58906;" d="M509.835707 193.210699m-34.844599 0a34.051 34.051 0 1 0 69.689199 0 34.051 34.051 0 1 0-69.689199 0ZM553.129746 617.723136c0 1.877767-1.521656 3.399423-3.399423 3.399423L465.454918 621.122559c-1.877767 0-3.399423-1.521656-3.399423-3.399423l0-2.410909c0-1.877767 1.521656-3.399423 3.399423-3.399423l84.275405 0c1.877767 0 3.399423 1.521656 3.399423 3.399423L553.129746 617.723136zM640.228453 591.446679 379.517663 591.446679c-6.801916 0-13.651928-5.859451-13.651928-11.645225L365.865735 263.777895c0-5.785773 6.850012-8.998955 13.651928-8.998955l260.71079 0c6.80294 0 11.139711 3.213181 11.139711 8.998955L651.368164 579.801455C651.367141 585.587228 647.030369 591.446679 640.228453 591.446679zM511.62547 831.006753c-246.710938 0-446.708971-199.999057-446.708971-446.708971S264.914532-62.411189 511.62547-62.411189s446.708971 199.999057 446.708971 446.708971S758.336408 831.006753 511.62547 831.006753zM676.949796 154.394648c0-14.688537-9.93221-26.5067-23.119557-26.5067L369.682667 127.887948c-13.187347 0-25.307386 11.818163-25.307386 26.5067L344.375282 614.495628c0 14.688537 12.120039 27.092032 25.307386 27.092032l284.147572 0c13.187347 0 23.119557-12.404518 23.119557-27.092032L676.949796 154.394648z"  horiz-adv-x="1024" />

    
    <glyph glyph-name="guanyuwomen" unicode="&#58910;" d="M516.251837-62.322162c-246.49809 0-446.321138 199.826118-446.321138 446.321138S269.753747 830.322162 516.251837 830.322162c246.496044 0 446.321138-199.828165 446.321138-446.323185S762.747881-62.322162 516.251837-62.322162zM516.251837 634.374374c-30.060643 0-54.429657-24.369014-54.429657-54.42761 0-30.062689 24.369014-54.431703 54.429657-54.431703 30.060643 0 54.429657 24.369014 54.429657 54.431703C570.681494 610.00536 546.31248 634.374374 516.251837 634.374374zM570.681494 416.656771c0 24.048719-19.497053 43.543725-43.543725 43.543725l-21.771863 0c-24.048719 0-43.543725-19.493983-43.543725-43.543725l0-261.261329c0-24.046672 19.493983-43.543725 43.543725-43.543725l21.771863 0c24.046672 0 43.543725 19.497053 43.543725 43.543725L570.681494 416.656771z"  horiz-adv-x="1024" />

    
    <glyph glyph-name="zhankaishangxia" unicode="&#59313;" d="M454.464 752.32l-253.44-253.44c-12.032-12.032-12.032-31.36 0-43.392 11.968-11.968 31.36-11.968 43.328 0l237.376 237.376 237.376-237.376c11.968-11.968 31.36-11.968 43.328 0 12.032 12.032 12.032 31.36 0 43.392l-253.44 253.44C491.264 769.984 478.016 771.968 454.464 752.32zM507.968-51.648l252.48 253.376c11.968 11.968 11.968 31.36 0 43.392-11.968 11.968-31.296 11.968-43.264 0l-236.48-237.376L244.16 245.12c-11.968 11.968-31.296 11.968-43.264 0-11.968-12.032-11.968-31.424 0-43.392l252.48-253.376C465.984-64 491.136-68.48 507.968-51.648z"  horiz-adv-x="1024" />

    
    <glyph glyph-name="leimupinleifenleileibie" unicode="&#59385;" d="M320 384 192 384c-70.4 0-128-57.6-128-128l0-128c0-70.4 57.6-128 128-128l128 0c70.4 0 128 57.6 128 128l0 128C448 326.4 390.4 384 320 384zM384 128c0-35.2-28.8-64-64-64L192 64c-35.2 0-64 28.8-64 64l0 128c0 35.2 28.8 64 64 64l128 0c35.2 0 64-28.8 64-64L384 128zM768 832l-128 0C569.6 832 512 774.4 512 704l0-128c0-70.4 57.6-128 128-128l128 0c70.4 0 128 57.6 128 128L896 704C896 774.4 838.4 832 768 832zM832 576c0-35.2-28.8-64-64-64l-128 0C604.8 512 576 540.8 576 576L576 704c0 35.2 28.8 64 64 64l128 0c35.2 0 64-28.8 64-64L832 576zM768 384l-128 0c-70.4 0-128-57.6-128-128l0-128c0-70.4 57.6-128 128-128l128 0c70.4 0 128 57.6 128 128l0 128C896 326.4 838.4 384 768 384zM832 128c0-35.2-28.8-64-64-64l-128 0c-35.2 0-64 28.8-64 64l0 128c0 35.2 28.8 64 64 64l128 0c35.2 0 64-28.8 64-64L832 128zM320 832 192 832C121.6 832 64 774.4 64 704l0-128c0-70.4 57.6-128 128-128l128 0c70.4 0 128 57.6 128 128L448 704C448 774.4 390.4 832 320 832zM384 576c0-35.2-28.8-64-64-64L192 512C156.8 512 128 540.8 128 576L128 704c0 35.2 28.8 64 64 64l128 0c35.2 0 64-28.8 64-64L384 576z"  horiz-adv-x="1024" />

    
    <glyph glyph-name="shimingrenzheng" unicode="&#58939;" d="M533.5-96 97.4-96l0.8 31.9c4.6 181.4 82.1 338 196 409.2-74.4 46-123.4 132.8-123.4 229.2C170.8 719.7 280.3 838 414.9 838S659 719.7 659 574.3c0-91.7-44.6-175.4-114-222.8 0.2-0.1 0.5-0.2 0.7-0.3l28.6-12.2-24.5-57.3-28.6 12.2c-5.4 2.3-13 6.1-21.2 10.4-9.8 5-28.1 14.4-34.1 15.6l-42.9 8.6-42.3-12c-115.9-33-204.9-177.6-218.7-350.2l371.4 0L533.4-96zM414.9 775.7c-100.3 0-181.9-90.4-181.9-201.4 0-95.7 61.4-178.7 146-197.5l42-9.3 41.9 12.7c78.8 23.9 133.8 103.7 133.8 194C596.8 685.4 515.2 775.7 414.9 775.7zM731.8 305.4c-107.6 0-194.9-87.2-194.9-194.9s87.2-194.9 194.9-194.9 194.9 87.2 194.9 194.9C926.7 218.1 839.4 305.4 731.8 305.4zM691.6-13.4l-98.5 97.9 45.9 46.1 52.7-52.4 128.2 127.6 45.9-46.1L691.6-13.4z"  horiz-adv-x="1024" />

    
    <glyph glyph-name="qian" unicode="&#58881;" d="M387.017 634.845h242.129c74.925 0 132.079 162.482 132.079 162.482 0 48.66-4.872 85.475-88.070 88.069-83.172 2.62-103.098-58.159-162.871-58.159-61.266 0-91.911 47.78-167.301 58.159-75.365 10.426-88.044-39.409-88.044-88.069 0-0.001 57.129-162.482 132.079-162.482zM642.363 584.618h-255.346c-282.762 0-352.204-555.51-352.204-555.51 0-72.967 59.138-146.253 132.079-146.253h695.57c72.942 0 132.078 73.286 132.078 146.253 0.001-0.001-69.464 555.51-352.178 555.51zM671.345 157.688c17.036 0 30.842-13.83 30.842-30.867 0-17.035-13.805-30.865-30.842-30.865h-125.202v-80.971c0-17.035-13.805-30.867-30.817-30.867-17.036 0-30.84 13.832-30.84 30.867l-0 80.971h-126.010c-17.035 0-30.84 13.83-30.84 30.865 0 17.037 13.805 30.867 30.84 30.867h126.010v39.162h-126.010c-17.035 0-30.84 13.806-30.84 30.842 0 17.036 13.805 30.891 30.84 30.891h85.181l-87.212 154.99c-8.518 14.785-3.452 33.632 11.284 42.149 14.759 8.519 33.607 3.476 42.125-11.258l105.008-185.881h5.311l105.008 185.881c8.517 14.735 27.365 19.778 42.101 11.258 14.76-8.517 19.828-27.364 11.309-42.149l-87.212-154.99h79.967c17.036 0 30.842-13.854 30.842-30.891 0-17.035-13.805-30.842-30.842-30.842h-125.202v-39.162l125.202-0z"  horiz-adv-x="1024" />

    
    <glyph glyph-name="suo" unicode="&#58901;" d="M807.103 555.663h-26.243c0.076 0.983 0.12 1.974 0.115 2.971l0.585 57.248c-0.571 128.028-76.836 230.729-194.278 261.626-23.637 6.219-48.594 9.311-74.163 9.198-74.863-0.344-142.728-28.999-191.085-80.692-47.059-50.314-72.792-118.694-72.445-192.43l-2.179-57.178 2.824-0.743h-35.213c-74.128 0-134.431-60.301-134.431-134.42v-394.725c0-74.118 60.301-134.42 134.431-134.42h592.081c74.118 0 134.42 60.301 134.42 134.42v394.726c0 74.118-60.302 134.419-134.42 134.419zM513.441 815.214c19.063 0.089 37.597-2.193 55.087-6.795 85.56-22.509 141.126-98.216 141.562-192.824l-0.584-57.243c0.004-0.905 0.054-1.8 0.125-2.691h-390.774l2.201 58.123c-0.526 116.209 80.382 200.926 192.384 201.43zM870.045 26.518c0-34.708-28.238-62.942-62.942-62.942h-592.081c-34.714 0-62.952 28.239-62.952 62.942v394.725c0 34.706 28.239 62.936 62.952 62.936h592.081c34.703 0 62.942-28.23 62.942-62.936v-394.725zM511.061 358.3c-37.842 0-68.631-30.788-68.631-68.63 0-23.86 12.558-46.158 32.888-58.587v-105.888c0-19.704 16.030-35.735 35.744-35.735 19.703 0 35.735 16.031 35.735 35.735v105.888c20.339 12.42 32.897 34.723 32.897 58.587-0.002 37.843-30.791 68.63-68.633 68.63z"  horiz-adv-x="1024" />

    
    <glyph glyph-name="moban" unicode="&#58911;" d="M880.772948 34.875554l0-16.623609c0-80.719416-131.784442-80.719416-284.407492-80.719416l-168.754448 0c-158.874427 0-284.383956 0-284.383956 80.719416l0 16.623609c0 154.426115 127.546931 280.028764 284.383956 280.028764l168.754448 0C753.191224 314.904319 880.772948 189.265854 880.772948 34.875554zM748.501412 589.122751c0-133.092227-109.88262-241.345744-244.948805-241.345744-135.052882 0-244.948805 108.291378-244.948805 241.345744 0 133.066645 109.895923 241.345744 244.948805 241.345744C638.618792 830.467471 748.501412 722.213955 748.501412 589.122751z"  horiz-adv-x="1024" />

    
    <glyph glyph-name="fenxiang" unicode="&#58924;" d="M365.604792 633.89956l127.792525 127.793548 0.152473-503.227196c0.004093-11.014868 8.934486-19.943215 19.949354-19.943215 0.002047 0 0.004093 0 0.00614 0 11.016915 0.004093 19.947308 8.937556 19.943215 19.954471l-0.152473 503.100306 127.675868-127.676891c3.89675-3.89675 8.999978-5.843078 14.106276-5.843078 5.104251 0 10.212596 1.948375 14.106276 5.842055 7.79043 7.79043 7.79043 20.422122 0 28.212552L527.85306 823.444521c-3.638877 3.870144-8.791224 6.300496-14.521738 6.300496-0.002047 0-0.004093 0-0.00614 0-0.00614 0-0.01228-0.001023-0.01842-0.001023-0.00614 0-0.01228 0.001023-0.01842 0.001023-5.291516 0-10.364045-2.101871-14.106276-5.842055L337.39224 662.113135c-7.789407-7.79043-7.789407-20.422122 0-28.212552C345.18267 626.10913 357.814362 626.10913 365.604792 633.89956zM782.507924 580.912765 642.713041 580.912765c-11.016915 0-19.949354-8.931416-19.949354-19.949354s8.93244-19.949354 19.949354-19.949354l139.794883 0c38.498826 0 69.821205-31.322379 69.821205-69.821205l0-425.443645c0-38.498826-31.322379-69.821205-69.821205-69.821205L246.009973-24.071999c-38.498826 0-69.821205 31.322379-69.821205 69.821205L176.188768 471.193875c0 38.498826 31.322379 69.821205 69.821205 69.821205l143.936203 0c11.017938 0 19.949354 8.931416 19.949354 19.949354s-8.931416 19.949354-19.949354 19.949354L246.009973 580.913788c-60.499909 0-109.718891-49.220005-109.718891-109.718891l0-425.443645c0-60.499909 49.220005-109.718891 109.718891-109.718891l536.49795 0c60.499909 0 109.718891 49.220005 109.718891 109.718891L892.226814 471.193875C892.227838 531.693784 843.007833 580.912765 782.507924 580.912765z"  horiz-adv-x="1024" />

    
    <glyph glyph-name="xin" unicode="&#58933;" d="M700.856275 740.457458c-74.768891 0-144.295384-72.696696-190.046381-127.260405C465.073224 667.773042 395.563104 740.457458 320.754305 740.457458c-134.789892 0-244.443291-105.780185-244.443291-235.799424 0-77.56968 39.277562-131.98808 70.844511-175.712931 91.752704-126.998439 322.464249-285.038872 332.234777-291.701618 9.410324-6.414083 20.424168-9.629311 31.401174-9.629311 11.005658 0 21.998013 3.215228 31.397081 9.629311 9.782807 6.662747 240.514819 164.703179 332.23887 291.701618 31.586392 43.723827 70.873164 98.143251 70.873164 175.712931C945.299567 634.678296 835.645145 740.457458 700.856275 740.457458L700.856275 740.457458zM700.856275 740.457458"  horiz-adv-x="1024" />

    
    <glyph glyph-name="yanjing" unicode="&#59009;" d="M512.338944 157.713408c165.547008 0 390.09792 169.18016 405.70368 215.688192-6.089728 50.951168-217.427968 235.211776-405.70368 235.211776-179.0976 0-405.809152-146.766848-405.830656-236.33408C111.219712 328.153088 328.777728 157.713408 512.338944 157.713408M512.338944 112.601088C324.273152 112.601088 61.44 289.601536 61.44 371.8912c0 130.400256 264.404992 281.83552 450.898944 281.83552 204.079104 0 450.905088-198.331392 450.905088-281.83552C963.244032 302.406656 693.465088 112.601088 512.338944 112.601088L512.338944 112.601088 512.338944 112.601088 512.338944 112.601088zM512.338944 112.601088M512.338944 270.4384c62.134272 0 112.729088 50.593792 112.729088 112.729088 0 62.1312-50.594816 112.72192-112.729088 112.72192-62.133248 0-112.723968-50.59072-112.723968-112.72192C399.614976 321.032192 450.205696 270.4384 512.338944 270.4384M512.338944 225.32608c-87.181312 0-157.837312 70.660096-157.837312 157.841408 0 87.17824 70.656 157.835264 157.837312 157.835264 87.186432 0 157.840384-70.656 157.840384-157.835264C670.179328 295.986176 599.525376 225.32608 512.338944 225.32608L512.338944 225.32608 512.338944 225.32608 512.338944 225.32608zM512.338944 225.32608"  horiz-adv-x="1024" />

    
    <glyph glyph-name="icon3" unicode="&#58987;" d="M331.714937 353.20053l-89.989547 0c-17.533328 0-31.747051 14.21577-31.747051 31.746028 0 17.533328 14.213723 31.746028 31.747051 31.746028l58.243519 0 0 58.244542c0 17.533328 14.213723 31.747051 31.746028 31.747051s31.746028-14.213723 31.746028-31.747051l0-89.99057C363.460965 367.4163 349.247242 353.20053 331.714937 353.20053zM885.821941 836.64824 437.537078 836.64824c-75.854619 0-137.569192-61.711504-137.569192-137.569192l0-108.153232c-67.791989-13.780865-135.788639-29.376051-189.420117-57.977459-73.354682-39.124066-110.547769-99.009991-110.547769-177.997973l0-269.970688c0-46.679136 37.97694-84.657098 84.657098-84.657098l91.198072 0c27.285436-40.433898 73.520457-67.074651 125.862569-67.074651s98.577133 26.640754 125.861546 67.074651l198.22976 0c27.285436-40.433898 73.519434-67.074651 125.860523-67.074651s98.576109 26.640754 125.861546 67.074651l61.201897 0c46.681182 0 84.658122 37.977963 84.658122 84.657098L1023.391133 699.080072C1023.391133 774.936737 961.676559 836.64824 885.821941 836.64824zM301.717739-3.259998c-48.656163 0-88.240717 39.5866-88.240717 88.23867 0 48.656163 39.584554 88.239693 88.240717 88.239693 48.65514 0 88.240717-39.584554 88.240717-88.239693C389.958456 36.326603 350.372879-3.259998 301.717739-3.259998zM751.668545-3.259998c-48.65514 0-88.239693 39.5866-88.239693 88.23867 0 48.656163 39.585577 88.239693 88.239693 88.239693 48.656163 0 88.240717-39.584554 88.240717-88.239693C839.910285 36.326603 800.324708-3.259998 751.668545-3.259998zM959.89703 84.979696c0-11.668761-9.494235-21.164019-21.165042-21.164019l-36.836977 0c0.970094 6.921643 1.508353 13.979386 1.508353 21.164019 0 83.668585-68.068282 151.733796-151.733796 151.733796-83.665515 0-151.732773-68.066235-151.732773-151.733796 0-7.184633 0.536212-14.242376 1.50733-21.164019L451.943183 63.815677c0.970094 6.921643 1.508353 13.979386 1.508353 21.164019 0 83.668585-68.068282 151.733796-151.733796 151.733796-83.666538 0-151.733796-68.066235-151.733796-151.733796 0-7.184633 0.537236-14.242376 1.50733-21.164019L84.657098 63.815677c-11.668761 0-21.164019 9.494235-21.164019 21.164019L63.49308 354.950384C63.494103 470.567611 167.177534 499.647927 337.939709 533.797701l25.521257 5.105275L363.460965 699.080072c0 40.84629 33.230845 74.075089 74.076112 74.075089l448.284863 0c40.84322 0 74.075089-33.229822 74.075089-74.075089L959.89703 84.979696z"  horiz-adv-x="1039" />

    
    <glyph glyph-name="shoucang" unicode="&#58927;" d="M942.888817 491.463084c-9.590498 27.201757-33.74692 46.780283-63.048453 51.093359l-206.68087 30.285267-89.758344 183.564943c-12.976602 26.57758-41.010795 43.753735-71.428571 43.753735-30.341828 0-58.338247-17.176155-71.352823-43.753735l-89.796318-183.58393-206.661883-30.323041c-29.320521-4.21834-53.49573-23.777879-63.086228-51.131133-9.57171-27.618075-2.440146-57.619534 18.594793-78.295116l151.690754-149.250608-35.184545-206.813381c-4.937253-28.828654 7.888052-58.395008 32.763187-75.362904 24.326507-16.362706 56.938396-18.159688 83.137633-4.388625l179.933005 95.509045 180.046528-95.527832c11.6525-6.147832 24.723837-9.401626 37.832749-9.401626 16.154647 0 31.798641 4.766968 45.323671 13.865599 24.761612 16.892547 37.567929 46.439914 32.630876 75.268568l-35.165758 206.832168 151.709741 149.250608C945.385924 433.768001 952.517489 463.76946 942.888817 491.463084zM897.81118 440.048343l-165.783599-163.116407 38.475913-226.316158c2.496907-14.52775-3.896758-28.942177-16.551978-37.586916-12.957815-8.7017-30.436564-9.628472-44.226614-2.364597l-197.733337 104.929458-197.601027-104.891484c-13.941348-7.339624-31.439084-6.355891-44.226614 2.269861-12.78753 8.720488-19.181195 23.153702-16.684288 37.681452l38.4949 226.278183-165.764612 163.116407c-10.517469 10.328397-14.111632 25.253478-9.401426 38.854257 4.899278 13.922561 17.440975 23.948163 32.819948 26.161463l226.448468 33.236066 98.55458 201.497785c6.69646 13.695514 21.375507 22.548312 37.378857 22.548312 16.060111 0 30.739159-8.834011 37.435619-22.529525l98.535593-201.497785 226.391906-33.160517c15.360186-2.270061 27.958444-12.333438 32.838935-26.18025C911.922812 465.301821 908.328649 450.395528 897.81118 440.048343zM509.475871 536.654444c-38.740734 0-69.952972-11.822784-92.72833-35.108796-38.022021-38.873244-37.208573-95.33876-37.151811-97.741132 0.227046-10.290623 8.644739-18.462482 18.897587-18.462482 0.113523 0 0.245833 0 0.359356 0 10.422933 0.189072 18.708316 8.815023 18.557018 19.237957 0 0.435105-0.340569 43.394179 26.558593 70.690672 15.378973 15.625006 37.435619 23.532045 65.488599 23.532045 10.44192 0 18.916375 8.474454 18.916375 18.916375C528.373459 528.161003 519.917792 536.654444 509.475871 536.654444z"  horiz-adv-x="1024" />

    
    <glyph glyph-name="pinglun" unicode="&#58883;" d="M511.999488 48.117137c-28.734592 0-56.729303 2.604314-83.969807 7.099698L231.232673-64.185602 231.232673 134.59265C128.618486 206.644663 62.772174 317.110567 62.772174 441.174164c0 217.07906 201.129864 393.058051 449.228338 393.058051 248.084146 0 449.228338-175.980014 449.228338-393.058051C961.227826 224.082824 760.083635 48.117137 511.999488 48.117137zM511.999488 778.08238c-217.086932 0-393.074156-150.851707-393.074156-336.907193 0-114.166179 66.421434-214.898395 167.761552-275.820929l-1.768346-130.234133 132.171551 79.455633c30.4487-6.497994 62.117231-10.308787 94.910422-10.308787 217.101258 0 393.073132 150.825101 393.073132 336.907193C905.073644 627.230674 729.10177 778.08238 511.999488 778.08238zM736.614169 385.023306c-31.011542 0-56.154182 25.128307-56.154182 56.150858 0 31.010271 25.14264 56.151881 56.154182 56.151881s56.154182-25.14161 56.154182-56.151881C792.768351 410.151613 767.624687 385.023306 736.614169 385.023306zM511.999488 385.023306c-31.010518 0-56.153158 25.128307-56.153158 56.150858 0 31.010271 25.14264 56.151881 56.153158 56.151881 31.011542 0 56.154182-25.14161 56.154182-56.151881C568.15367 410.151613 543.01103 385.023306 511.999488 385.023306zM287.385831 385.023306c-31.010518 0-56.153158 25.128307-56.153158 56.150858 0 31.010271 25.14264 56.151881 56.153158 56.151881s56.153158-25.14161 56.153158-56.151881C343.53899 410.151613 318.39635 385.023306 287.385831 385.023306z"  horiz-adv-x="1024" />

    
    <glyph glyph-name="xiayiye1" unicode="&#58932;" d="M314.217936-62.765253 263.566326-12.113643 659.894863 384.214894 263.566326 780.543432 314.217936 831.195042 761.19706 384.214894Z"  horiz-adv-x="1024" />

    
    <glyph glyph-name="dunpai1" unicode="&#58950;" d="M512-127.999999l-10.871556 4.210371C151.981835 11.162198 111.60626 187.557902 111.60626 308.496104L111.60626 770.411537l31.169316-1.068303c242.693341-8.263639 346.035962 101.268855 347.010003 102.337159L512.031421 896l22.214422-24.319607c0.816938-0.879779 98.755201-102.777048 321.087941-102.777048 0 0 0 0 0.031421 0 8.452163 0 17.092851 0.125683 25.859221 0.43989l31.169316 1.068303 0-461.915434c0-120.938202-40.375575-297.333906-389.522184-432.285731L512-127.999999zM171.871127 708.638478l0-400.142375c0-65.04081 0.031421-236.754833 340.128873-371.832341 340.128873 135.077508 340.128873 306.791531 340.128873 371.832341L852.128873 708.638478c-188.335563 0.722676-296.705492 67.742989-340.128873 102.368579C468.545198 776.412888 360.175269 709.423995 171.871127 708.638478zM242.064928 358.61209l61.930163 50.178828 123.923166-91.434182c0 0 171.11703 177.024118 336.326971 259.629088l23.596932-26.581896c0 0-206.496717-171.11703-312.698619-398.319975L242.064928 358.61209z"  horiz-adv-x="1024" />

    
    <glyph glyph-name="chakantiezigengduojubao" unicode="&#58988;" d="M512.019836 895.300166C229.341005 895.300166 0.168979 666.439226 0.168979 384.11665 0.168979 101.794074 229.341004-127.07233 512.019836-127.07233 794.708243-127.07233 1023.884371 101.792708 1023.884371 384.11665 1023.883002 666.439226 794.708243 895.300166 512.019836 895.300166L512.019836 895.300166 512.019836 895.300166ZM512.019836-50.392342C271.735784-50.392342 76.94223 144.152709 76.94223 384.115286 76.94223 624.094259 271.735784 818.627008 512.019836 818.627008 752.301152 818.627008 947.09607 624.094253 947.09607 384.115286 947.094707 144.154075 752.301152-50.392342 512.019836-50.392342L512.019836-50.392342 512.019836-50.392342ZM537.897737 290.319705 552.23407 670.347885 457.610169 670.347885 471.958814 290.319705 537.897737 290.319705 537.897737 290.319705ZM503.504218 230.207471C471.960182 230.207471 446.874335 204.44528 446.874335 172.245615 446.874335 140.752269 470.514236 113.556947 503.504218 113.556947 535.015423 113.556947 560.83587 139.327335 560.83587 172.245615 560.83587 204.443913 535.015423 230.207471 503.504218 230.207471L503.504218 230.207471 503.504218 230.207471Z"  horiz-adv-x="1024" />

    
    <glyph glyph-name="chakantiezigengduozhiguanzhulouzhu" unicode="&#58989;" d="M1024.039909 50.465624c-55.238069-105.918331-167.732166-178.465624-297.440319-178.465624-129.71634 0-242.209414 72.548316-297.446459 178.465624 39.740096 76.241428 109.401666 134.661979 193.549158 161.710009-39.850613 20.031219-83.607186 33.416064-130.040728 38.236859-8.760524-0.698918-17.516956-1.323135-26.462698-1.323135-12.550851 0-24.913413 0.859577-37.134759 2.218528C248.203942 240.108822 101.8292 102.91416 76.455299-73.623555l-3.837398-20.231787c-2.958378-18.650779-15.306614-34.143635-35.9467-33.933857-19.519566 0.198521-35.322483 15.245216-35.322483 34.043351l-0.325411 3.160993c0 6.29538 2.789533 16.962324 2.789533 16.962324C29.467125 95.033679 147.699923 233.565802 305.858036 290.639682 206.120474 346.048643 138.66106 451.326385 138.66106 572.289364c0 178.490184 146.654105 323.189773 327.537801 323.189773 180.90314 0 327.558267-144.69959 327.558267-323.189773 0-120.927163-67.435878-226.173183-167.102832-281.5934 42.615587-15.360849 82.141812-36.833907 117.9299-63.010079C866.561271 221.262592 971.383642 151.408641 1024.039909 50.465624zM714.977901 574.05559c0 137.972375-111.909789 249.815649-249.945609 249.815649-138.052193 0-249.963005-111.844298-249.963005-249.815649 0-137.962142 111.910812-249.804393 249.963005-249.804393C603.068112 324.251198 714.977901 436.094472 714.977901 574.05559zM715.045439 157.545408c-68.339458 0-130.406049-39.398312-130.406049-39.398312s-62.559824-41.913599-84.049255-70.167083c21.48943-28.256554 50.169633-52.261271 84.001159-70.15378 42.527582-22.540366 91.651396-34.440393 142.007271-34.440393 0.044002 0 0.090051 0.023536 0.140193 0.023536-59.074444 0.070608-106.915032 47.960315-106.915032 107.056248 0 57.848523 45.939285 104.675014 103.288434 106.692974C720.348212 157.229207 717.930139 157.545408 715.045439 157.545408zM690.995697 50.465624c0-19.707854 15.965623-35.693944 35.669384-35.693944 19.730367 0 35.691897 15.986089 35.691897 35.693944 0 19.705807-15.96153 35.69292-35.691897 35.69292C706.96132 86.158545 690.995697 70.171432 690.995697 50.465624zM833.981249 50.465624c0-58.932204-47.637973-106.71037-106.499569-107.009176 50.028417 0.115634 98.828866 11.965519 141.098575 34.369785 33.834596 17.891486 62.531172 41.896202 84.051301 70.15378-21.519106 28.234041-84.051301 70.167083-84.051301 70.167083s-44.287669 33.157167-131.291209 38.352493C791.478226 151.199886 833.981249 106.051617 833.981249 50.465624z"  horiz-adv-x="1025" />

    
    <glyph glyph-name="xiaoxi" unicode="&#58957;" d="M921.954883 840.053804 102.682637 840.053804c-50.408063 0-91.27175-40.863686-91.27175-91.27175l0-547.07382c0-50.408063 40.863686-91.27175 91.27175-91.27175l174.788885 0c18.367323 0 33.257451 14.890128 33.257451 33.257451l0 0c0 18.367323-14.890128 33.257451-33.257451 33.257451L102.682637 176.951387c-13.673417 0-24.756847 11.084453-24.756847 24.756847L77.92579 748.782054c0 13.672394 11.084453 24.756847 24.756847 24.756847l819.273269 0c13.672394 0 24.756847-11.084453 24.756847-24.756847l0-547.07382c0-13.673417-11.084453-24.756847-24.756847-24.756847L536.63712 176.951387c-11.68104 0-22.900569-4.555759-31.276331-12.698207L319.970452-15.988904c-13.276375-12.69309-13.749142-33.744545-1.056052-47.02092l0 0c12.69309-13.276375 33.744545-13.749142 47.02092-1.056052l166.101016 161.776524c8.377808 8.159844 19.61064 12.725836 31.304983 12.725836l358.614587 0c50.408063 0 91.27175 40.863686 91.27175 91.27175L1013.227656 748.782054C1013.227656 799.190117 972.363969 840.053804 921.954883 840.053804zM301.876352 477.449345m-51.418067 0a50.247 50.247 0 1 0 102.836133 0 50.247 50.247 0 1 0-102.836133 0ZM511.978511 477.449345m-51.418067 0a50.247 50.247 0 1 0 102.836133 0 50.247 50.247 0 1 0-102.836133 0ZM718.785623 477.449345m-51.418067 0a50.247 50.247 0 1 0 102.836133 0 50.247 50.247 0 1 0-102.836133 0Z"  horiz-adv-x="1029" />

    
    <glyph glyph-name="14" unicode="&#59048;" d="M618.326 475.057v67.36c-0.252 18.521-6.88 112.288-112.482 112.288-105.598 0-112.227-93.766-112.478-112.58v-67.068h224.96zM528.338 301.611v0c13.403 7.782 22.513 22.119 22.491 38.684 0 24.825-20.156 44.927-44.985 44.927-24.825 0-44.981-20.102-44.981-44.927 0-16.565 9.11-30.901 22.491-38.684v-73.603h44.984v73.603zM512-64c-247.424 0-448 200.576-448 448s200.576 448 448 448c247.424 0 448-200.576 448-448s-200.576-448-448-448zM663.307 475.038v67.38c0 0-0.019 157.195-157.463 157.195-157.44 0-157.459-157.195-157.459-157.195v-67.38h-67.498v-314.413h449.918v314.413h-67.498z"  horiz-adv-x="1024" />

    
    <glyph glyph-name="iconrx" unicode="&#58907;" d="M809.537 399.16c0 164.356-133.264 297.564-297.565 297.564-164.328 0-297.537-133.208-297.537-297.564 0-164.355 133.209-297.563 297.537-297.563 164.301 0 297.565 133.208 297.565 297.563zM915.226 454.889c-27.264 198.162-197.665 351.306-403.2 351.306-205.531 0-375.953-153.14-403.225-351.297-26.396-4.822-46.412-27.924-46.412-55.737 0-31.313 25.365-56.702 56.649-56.702 31.312 0 56.676 25.39 56.676 56.702 0 25.032-16.215 46.246-38.715 53.756 26.196 183.529 184.371 325.078 375.026 325.078 190.627 0 348.796-141.541 374.996-325.060-22.516-7.496-38.737-28.723-38.737-53.774 0-25.051 16.223-46.296 38.741-53.797-21.957-153.843-136.673-278.171-285.515-314.357-7.972 11.827-21.484 19.614-36.83 19.614l-105.31-0c-24.564 0-44.393-19.909-44.393-44.419 0-24.484 19.829-44.396 44.393-44.396h105.31c23.733 0 43.083 18.626 44.328 42 160.178 39.3 283.399 173.646 306.22 339.604 26.39 4.846 46.379 27.958 46.379 55.752 0.001 27.796-19.99 50.888-46.382 55.728z"  horiz-adv-x="1024" />

    
    <glyph glyph-name="pinglun1" unicode="&#58934;" d="M538.006304 815.192579c-231.93849 0-420.644339-175.86438-420.644339-392.026558 0-45.830815 8.438183-90.775446 25.040303-133.611044 6.29845-16.08228 24.337291-24.031323 40.541345-17.85567 16.112979 6.26775 24.092721 24.39869 17.85567 40.541345-13.81975 35.557844-20.821211 72.859401-20.821211 110.924345 0 181.64299 160.607908 329.409428 358.02721 329.409428s358.02721-147.766438 358.02721-329.409428c0-181.612291-160.607908-329.379753-358.333178-329.379753-31.583323 0.367367-67.325361 6.329149-105.390305 13.361309C318.78751 128.030188 177.593767 154.171568 71.01131 2.09394c-9.905604-14.186094-6.481621-33.69338 7.673773-43.629683 5.472642-3.822049 11.740392-5.655813 17.946744-5.655813 9.875928 0 19.567661 4.647857 25.682939 13.33061 83.468017 119.148657 187.94144 99.825566 298.621215 79.432097 40.052205-7.398504 77.964676-14.400988 114.226554-14.400988 232.42763-1.528819 423.488107 174.978197 423.488107 391.995859C958.650643 639.328199 769.944793 815.192579 538.006304 815.192579zM732.147956 426.119283m-64.426335 0a62.959 62.959 0 1 0 128.85267 0 62.959 62.959 0 1 0-128.85267 0ZM539.353998 426.119283m-64.426335 0a62.959 62.959 0 1 0 128.85267 0 62.959 62.959 0 1 0-128.85267 0ZM346.56004 426.119283m-64.426335 0a62.959 62.959 0 1 0 128.85267 0 62.959 62.959 0 1 0-128.85267 0Z"  horiz-adv-x="1024" />

    
    <glyph glyph-name="icon_good" unicode="&#58882;" d="M112 512h144l352.8 352c0 0 111.2-16 79.2-144-22.304-89.248-79.2-208-79.2-208h271.2c48 0 96-47.84 96-96 0-64-34.24-116.448-96-240-48-96-112-208-160-208h-352c-49.184 0-71.776 55.776-80 64-30.016 30.016-53.568 30.72-96 30.72h-80c-32 0-37.44 11.712-39.232 27.232-3.456 35.808-8.768 108.16-8.768 198.048 0 88.64 5.152 153.888 8.672 190.144 1.856 16.352 7.328 33.856 39.328 33.856z"  horiz-adv-x="1024" />

    
    <glyph glyph-name="sanjiaoxing-up" unicode="&#59279;" d="M832.185 191.981h-640.37l320.184 384.016z"  horiz-adv-x="1024" />

    
    <glyph glyph-name="sanjiaoxing-right" unicode="&#59280;" d="M319.981 63.815v640.37l384.016-320.184z"  horiz-adv-x="1024" />

    
    <glyph glyph-name="sanjiaoxing-down" unicode="&#59281;" d="M191.815 576.019h640.37l-320.184-384.016z"  horiz-adv-x="1024" />

    
    <glyph glyph-name="sanjiaoxing-left" unicode="&#59282;" d="M704.019 704.185v-640.37l-384.016 320.184z"  horiz-adv-x="1024" />

    
    <glyph glyph-name="bhjaward" unicode="&#58916;" d="M512 896C229.18227 896 0 666.790054 0 384 0 101.18227 229.18227-128 512-128S1024 101.18227 1024 384C1024 666.790054 794.790054 896 512 896L512 896zM828.803459 67.196541l-127.335784 127.335784c-32.795676-32.823351-73.977081-57.094919-120.084757-69.410595l46.605838-173.996973c-37.583568-10.101622-76.412541-15.110919-115.988757-15.110919s-78.405189 5.12-115.988757 15.110919l46.605838 173.996973c-46.107676 12.288-87.289081 36.587243-120.112432 69.410595l-127.308108-127.335784 0 0c-41.181405 41.209081-73.478919 89.115676-96.006919 142.419027-8.081297 19.096216-14.778811 38.635243-20.092541 58.395676l173.996973 46.605838c-5.922595 22.112865-9.105297 45.415784-9.105297 69.299892 0 24.022486 3.182703 47.214703 9.105297 69.410595l-173.996973 46.716541c5.286054 19.788108 12.011243 39.299459 20.092541 58.395676 22.611027 53.303351 54.908541 101.292973 96.006919 142.391351l0 0 127.308108-127.308108c32.823351 32.795676 74.004757 57.094919 120.112432 69.410595l-46.605838 173.996973c37.583568 9.990919 76.412541 15.110919 115.988757 15.110919s78.405189-5.12 115.988757-15.110919l-46.605838-173.996973c46.107676-12.315676 87.289081-36.614919 120.084757-69.410595l127.335784 127.308108 0 0c41.181405-41.209081 73.478919-89.088 96.006919-142.391351 8.081297-19.096216 14.778811-38.607568 20.092541-58.395676l-173.996973-46.605838c5.922595-22.112865 9.105297-45.415784 9.105297-69.410595s-3.182703-47.187027-9.105297-69.410595l173.996973-46.605838c-5.286054-19.788108-12.011243-39.299459-20.092541-58.395676C902.282378 156.284541 869.874162 108.405622 828.803459 67.196541L828.803459 67.196541 828.803459 67.196541zM828.803459 67.196541M654.252973 234.329946l-114.411243 61.910486c-36.504216-38.967351-120.167784-61.910486-218.167351-61.910486l0 45.913946c55.794162 2.463135 125.481514 10.682811 153.350919 36.089081l-153.766054 0 0 39.797622 166.08173 0 0 13.533405 72.150486 0 0-13.533405 171.008 0 0-39.797622-127.529514 0 106.219243-50.037622 21.725405 0-15.581405-31.965405L654.252973 234.329946zM475.883243 370.051459l-70.932757 0 0 30.747676-83.248432-20.092541L321.702054 428.281081l83.248432 20.092541 0 25.40627-83.248432 0 0 39.769946 83.248432 0 0 27.066811 70.932757 0L475.883243 370.051459zM582.905081 540.616649l-65.619027 0-21.337946-53.303351-9.824865 0 9.824865-31.965405 34.871351 0 23.773405-33.625946c-19.677405-1.632865-40.600216-1.632865-62.740757-1.632865l0-45.526486c135.693838-3.293405 223.065946 22.555676 235.353946 146.376649L574.27027 520.939243 582.905081 540.616649zM661.642378 487.313297c-10.267676-27.869405-28.284541-44.281081-50.867892-53.718486l-23.773405 31.993081-37.306811 0 9.437405 21.725405L661.642378 487.313297z"  horiz-adv-x="1024" />

    
    <glyph glyph-name="search" unicode="&#58913;" d="M1001.526-95.698c-1.604 4.877-1.604 4.877-2.865 7.168-1.105 1.984-2.368 3.806-3.959 5.878-2.202 2.866-5.279 6.484-9.344 11.034-7.135 7.985-17.534 19.073-31.316 33.434-21.547 22.452-43.133 44.501-95.562 97.793-51.918 52.772-73.698 75.021-95.054 97.278-13.39 13.955-23.439 24.672-30.094 32.12-3.305 3.699-5.679 6.492-6.966 8.165 0.857-1.611 0.857-1.611 2.211-5.59 2.109-7.495 2.109-7.495-6.967-24.755 82.243 79.258 129.721 189.187 129.721 306.774 0 233.285-185.801 422.399-414.998 422.399-229.197 0-414.998-189.114-414.998-422.399 0-233.285 185.801-422.399 414.998-422.399 5.024 0 10.224 0.235 16.015 0.682 4.139 0.319 7.732 0.664 14.304 1.341 13.307 1.372 18.153 1.762 23.746 1.762 9.499 0 24.567 3.368 46.993 9.585 2.631 0.729 5.329 1.491 8.086 2.281 8.5 2.437 17.191 5.040 25.621 7.643 5.063 1.563 8.929 2.784 11.136 3.493 13.247 4.254 20.598 18.633 16.418 32.116-4.18 13.483-18.307 20.965-31.554 16.711-2.039-0.655-5.73-1.82-10.603-3.325-8.13-2.51-16.509-5.020-24.655-7.355-2.622-0.752-5.182-1.474-7.669-2.164-17.234-4.778-30.689-7.785-33.773-7.785-7.939-0-13.677-0.463-28.813-2.023-6.168-0.636-9.443-0.95-13.035-1.227-4.615-0.356-8.588-0.536-12.216-0.536-201.416 0-364.695 166.192-364.695 371.199 0 205.008 163.28 371.199 364.695 371.199 201.416 0 364.695-166.192 364.695-371.199 0-103.375-41.692-199.909-114.003-269.595-9.255-17.568-9.255-17.568-7.048-25.632 1.589-4.678 1.589-4.678 2.832-6.923 1.101-1.961 2.361-3.776 3.945-5.836 2.21-2.874 5.293-6.499 9.361-11.053 7.146-7.998 17.549-19.093 31.323-33.447 21.563-22.472 43.408-44.789 95.478-97.715 52.278-53.138 73.8-75.123 95.141-97.36 13.397-13.96 23.444-24.672 30.086-32.106 3.296-3.689 5.661-6.47 6.933-8.126-0.938 1.752-0.938 1.752-2.319 5.944-2.072 8.077-2.072 8.077 8.092 25.4-10.608-9.128-11.937-25.28-2.969-36.077 8.968-10.797 24.838-12.15 35.445-3.022 10.357 17.616 10.357 17.616 8.199 26.25z"  horiz-adv-x="1024" />

    
    <glyph glyph-name="baoxianxiaoshou1" unicode="&#58971;" d="M497.606687 526.256958l120.792087 0 0-51.77827-120.792087 0 0 51.77827ZM813.103244 705.336566c-7.134491-0.223081-14.232143-0.334621-21.10569-0.334621l-0.036839 0c-181.77295 0-261.809821 83.306334-262.47804 84.013439l-18.170848 19.878746-18.161638-19.878746c-0.817622-0.854461-85.314061-90.440825-283.658432-83.678818l-25.527396 0.854461 0-377.589754c0-56.591903 10.961656-128.10054 73.868381-199.647039l3.678786-4.070712c47.152926-51.925626 122.098849-103.741759 240.882186-149.648298l8.882298-3.418866 8.881274 3.418866C805.560454 85.593679 838.556962 229.781616 838.556962 328.601272l0 377.589754L813.103244 705.336566zM414.191882 235.763864 373.950366 235.763864 373.950366 408.319895c-8.620331-15.344476-18.244526-30.189579-28.758997-44.568055-0.966001 7.653307-2.899026 18.688641-5.759167 33.06814-1.932002 9.567913-3.382027 17.260106-4.310166 23.01825 26.828019 45.054125 47.932686 97.779977 63.278185 158.178579l41.690518-11.499915c-6.725168-24.951275-15.346523-49.864688-25.897833-74.7781L414.192905 235.763864zM675.918815 276.022777c-4.793166-8.621355-8.620331-14.84408-11.481496-18.689664-39.350217 23.000853-68.110237 51.275827-86.280062 84.84641l0-106.416681-43.175335 0L534.981922 340.733591c-22.034852-37.380352-52.235688-66.623373-90.582041-87.710644-9.587356 14.379499-17.761526 25.377994-24.449855 33.070186 37.379329 20.138666 67.105351 45.51666 89.170902 76.209706l-80.549547 0 0 37.397748 106.410542 0 0 37.380352-79.062684 0L455.919239 563.638333l204.207915 0 0-126.557394-81.969896 0 0-37.380352 106.419751 0 0-37.397748-82.007759 0c19.172665-27.811416 47.487547-50.813293 84.868923-69.019956C685.505148 289.436274 681.677982 283.67813 675.918815 276.022777z"  horiz-adv-x="1024" />

    
    <glyph glyph-name="fenlei" unicode="&#59064;" d="M109.591489 746.41924c-22.966061 0-41.698704-18.705014-41.698704-41.698704 0-22.994714 18.732643-41.698704 41.698704-41.698704 22.967084 0 41.698704 18.703991 41.698704 41.698704C151.290193 727.715249 132.558573 746.41924 109.591489 746.41924zM262.160303 676.922423l667.177222 0c15.365966 0 27.799136 12.43317 27.799136 27.799136s-12.43317 27.799136-27.799136 27.799136L262.160303 732.520695c-15.365966 0-27.799136-12.43317-27.799136-27.799136S246.795361 676.922423 262.160303 676.922423zM109.102349 428.956911c-22.966061 0-41.698704-18.703991-41.698704-41.698704 0-22.99369 18.732643-41.698704 41.698704-41.698704 22.967084 0 41.698704 18.705014 41.698704 41.698704C150.801053 410.251897 132.069433 428.956911 109.102349 428.956911zM928.849408 415.057343 261.672186 415.057343c-15.365966 0-27.799136-12.43317-27.799136-27.799136s12.43317-27.799136 27.799136-27.799136l667.177222 0c15.365966 0 27.799136 12.43317 27.799136 27.799136S944.215374 415.057343 928.849408 415.057343zM108.559996 104.978169c-22.966061 0-41.698704-18.732643-41.698704-41.698704 0-23.02132 18.732643-41.698704 41.698704-41.698704 22.967084 0 41.698704 18.677385 41.698704 41.698704C150.258701 86.245526 131.527081 104.978169 108.559996 104.978169zM928.307056 91.078601 261.129834 91.078601c-15.365966 0-27.799136-12.488429-27.799136-27.799136 0-15.420201 12.43317-27.799136 27.799136-27.799136l667.177222 0c15.365966 0 27.799136 12.378935 27.799136 27.799136C956.106192 78.590172 943.673022 91.078601 928.307056 91.078601z"  horiz-adv-x="1024" />

    
    <glyph glyph-name="saoyisao" unicode="&#58897;" d="M108.26752 683.81184c0 55.61344 45.0816 100.69504 100.69504 100.69504L391.424 784.50688l0 43.99616L198.74304 828.50304c-74.1376 0-134.2464-60.10368-134.2464-134.25152l0-193.9456 43.76576 0L108.2624 683.81184 108.26752 683.81184zM913.83808 683.81184l0-183.5008 45.65504 0 0 193.9456c0 74.14272-60.10368 134.25152-134.2464 134.25152l-195.61984 0 0-43.99616 183.51104 0C868.75648 784.50688 913.83808 739.42016 913.83808 683.81184L913.83808 683.81184zM108.98944 78.10048l0 183.50592-43.76576 0 0-193.95072c0-74.1376 60.10368-134.2464 134.25152-134.2464l192.67584 0 0 44.00128L209.6896-22.58944C154.07104-22.58944 108.98944 22.49216 108.98944 78.10048L108.98944 78.10048zM914.56512 78.10048c0-55.60832-45.08672-100.68992-100.69504-100.68992l-183.50592 0 0-44.00128 195.6096 0c74.14272 0 134.25152 60.10368 134.25152 134.2464l0 193.95072-45.66016 0L914.56512 78.10048 914.56512 78.10048zM964.79744 397.91616 59.20256 397.91616c-13.27104 0-24.02816-10.76224-24.02816-24.02816 0-13.27616 10.76224-24.03328 24.02816-24.03328l905.59488 0c13.27104 0 24.02816 10.76224 24.02816 24.03328C988.8256 387.15392 978.06336 397.91616 964.79744 397.91616L964.79744 397.91616z"  horiz-adv-x="1024" />

    
    <glyph glyph-name="QQ" unicode="&#58974;" d="M512.268258 831.566897c-247.183323 0-447.569968-200.380501-447.569968-447.563825 0-247.189467 200.385621-447.570992 447.569968-447.570992s447.569968 200.380501 447.569968 447.569968c0 247.184347-200.386645 447.564849-447.569968 447.564849z m252.85872-584.692787c-18.997168-16.287968-43.668709 53.628042-47.2134 42.875198-8.642616-26.161294-12.695154-43.646184-38.148944-72.127602-1.35972-1.521494 29.43056-12.647032 38.148944-36.396051 8.346713-22.756875 24.596797-58.811973-81.725503-70.125906-62.389428-6.635801-107.471099 33.244533-111.964932 32.85648-8.325212-0.734126-4.618747 0-13.568528 0-7.321804 0-7.807126-0.534468-14.69685 0-1.899307 0.140272-22.632985-32.85648-115.364231-32.85648-71.878798 0-90.48177 45.243445-76.032701 70.125906 14.464428 24.877342 38.579999 32.122354 35.176604 36.06636-16.73643 19.39546-28.287904 40.1404-35.176604 58.882621-1.705793 4.666869-3.135137 9.209848-4.262434 13.574672-2.611931 10.008479-22.627866-58.76385-44.111028-42.875198-21.483162 15.883533-19.567472 56.309597-5.659014 95.003248 14.033372 39.006959 49.37687 76.562049 49.771065 84.854496 1.412962 30.849665-3.044011 35.975235 0 44.078263 6.780169 18.149391 15.034732 11.190043 15.034733 20.609788 0 118.64476 88.172909 214.829571 196.933079 214.829571 108.755051 0 196.928984-96.184811 196.928984-214.829571 0-4.554242 11.815637 0 17.474651-20.609788 1.165181-4.256291 1.968931-20.684531 0.58771-44.078263-0.658358-11.238165 29.954789-24.914202 45.777913-84.854496 15.845649-59.945414 0-88.215912-7.909514-95.003248z"  horiz-adv-x="1024" />

    
    <glyph glyph-name="huafei" unicode="&#58937;" d="M727.04 800.256h-418.304c-49.152 0-89.6-35.328-89.6-78.336v-677.376c0-43.008 40.448-78.336 89.6-78.336h418.304c49.152 0 89.6 35.328 89.6 78.336V722.432c0 43.008-40.448 77.824-89.6 77.824z m-328.192-38.912h239.104v-26.112h-239.104v26.112z m119.296-742.4c-32.768 0-59.904 23.552-59.904 52.224s26.624 52.224 59.904 52.224c32.768 0 59.904-23.552 59.904-52.224s-27.136-52.224-59.904-52.224z m239.104 156.672h-477.696V696.32h477.696V175.616zM500.224 399.36v29.696h-57.344c-12.288 0-17.92 4.608-17.92 13.312 0 8.704 6.144 13.824 17.92 14.848h39.424l-67.584 103.424c-1.024 0-2.048 1.024-3.072 3.072-2.048 3.072-3.072 7.68-3.072 13.312 0 7.68 5.12 12.8 14.848 14.848 7.68-1.024 14.336-5.12 19.456-11.264l75.776-113.152 75.264 112.64c4.608 6.656 10.752 10.24 19.456 11.264 8.704-2.048 13.824-7.168 14.848-14.848 0-3.072-1.536-7.68-5.12-13.312-1.024-1.024-1.536-2.048-1.536-3.072l-67.584-103.424h39.424c10.752-1.024 16.896-6.144 17.92-14.848-1.024-8.704-7.168-13.312-17.92-13.312h-57.344v-29.696h57.344c10.752-1.024 16.896-6.144 17.92-14.848-1.024-8.704-7.168-13.312-17.92-13.312h-57.344v-65.536c-1.024-10.752-7.168-16.384-17.92-16.384-12.288 0-17.92 5.632-17.92 16.384v65.536h-57.344c-12.288 0-17.92 4.608-17.92 13.312 0 8.704 6.144 13.824 17.92 14.848h57.344z"  horiz-adv-x="1024" />

    
    <glyph glyph-name="zhuanjia" unicode="&#58903;" d="M732.482 75.135c-11.31 0-20.478 9.168-20.478 20.478 0 94.979-92.328 172.249-205.814 172.249-113.485 0-205.813-77.272-205.813-172.249 0-11.31-9.168-20.478-20.478-20.478s-20.478 9.168-20.478 20.478c0 57.578 26.096 111.512 73.479 151.869 46.441 39.554 107.983 61.336 173.29 61.336s126.848-21.782 173.29-61.336c47.383-40.356 73.48-94.291 73.48-151.869 0-11.31-9.168-20.478-20.478-20.478zM511.075 317.429c-79.515 0-144.205 64.69-144.205 144.205 0 11.31 9.168 20.478 20.478 20.478s20.478-9.168 20.478-20.478c0-56.932 46.317-103.25 103.25-103.25 56.932 0 103.25 46.317 103.25 103.25 0 11.31 9.168 20.478 20.478 20.478s20.478-9.168 20.478-20.478c0-79.515-64.69-144.205-144.205-144.205zM675.557 517.574c-11.31 0-20.478 9.168-20.478 20.478 0 2.912 0.006 5.806 0.012 8.682 0.097 45.091 0.173 80.706-21.808 102.734-20.337 20.381-60.735 30.289-123.501 30.289-67.993 0-110.002-12.486-128.427-38.171-16.881-23.533-16.875-59.487-16.869-101.118v-2.414c0-11.31-9.168-20.478-20.478-20.478s-20.478 9.168-20.478 20.478v2.408c-0.007 46.674-0.014 90.759 24.546 124.996 27.042 37.697 78.424 55.255 161.706 55.255 75.23 0 123.684-13.446 152.492-42.315 33.982-34.054 33.88-81.509 33.772-131.75-0.006-2.845-0.012-5.711-0.012-8.593-0.001-11.31-9.169-20.478-20.479-20.478zM511.476 642.754l-6.849 6.133c-1.672 2.059-3.841 2.159-6.479 0.356l-23.409-23.302c-2.101-2.282-2.033-4.814 0.183-7.576l19.985-19.712 0.19 31.624 33.662-0.178v-31.446l19.448 19.712c1.933 2.289 1.933 4.797 0 7.576l-21.785 22.945c-2.761 2.104-5.279 2.292-7.572 0.548l-7.375-6.681zM446.143 576.934l-6.128-6.876c-2.013-1.689-2.151-3.859-0.337-6.517l23.262-23.43c2.295-2.094 4.817-2.039 7.577 0.194l19.601 20.105-31.52 0.098 0.116 33.805 33.624 0.048-21.963 19.475c-2.274 1.913-4.79 1.913-7.558 0l-22.835-21.929c-2.089-2.767-2.284-5.297-0.527-7.584l6.689-7.389zM512.007 512.904l6.868-6.135c1.679-2.031 3.854-2.141 6.489-0.337l23.345 23.372c2.081 2.295 2.023 4.83-0.226 7.589l-20.046 19.634-0.071-31.613-33.687 0.080-0.095 31.432-19.375-19.762c-1.931-2.3-1.913-4.822 0.020-7.581l21.851-22.864c2.779-2.109 5.286-2.277 7.577-0.522l7.349 6.707zM575.902 578.689l6.017 6.939c2.009 1.72 2.106 3.876 0.278 6.517l-23.563 23.153c-2.312 2.059-4.83 1.968-7.569-0.289l-19.347-20.331 31.533 0.261 0.276-33.787-31.322-0.439 19.887-19.235c2.315-1.89 4.845-1.843 7.567 0.116l22.563 22.172c2.053 2.806 2.219 5.329 0.439 7.606l-6.761 7.317zM538.584 73.866c-26.33 0-47.752 21.422-47.752 47.752v150.645c0 8.482 6.876 15.358 15.358 15.358s15.358-6.876 15.358-15.358v-150.646c0-9.393 7.642-17.035 17.035-17.035s17.035 7.642 17.035 17.035v35.522c0 8.482 6.876 15.358 15.358 15.358s15.358-6.876 15.358-15.358v-35.522c0-26.329-21.422-47.751-47.752-47.751zM542.196 173.29c0-0 0-0 0-0 0-15.781 12.793-28.574 28.574-28.574 15.781 0 28.574 12.793 28.574 28.574 0 0 0 0 0 0 0 0 0 0 0 0 0 15.781-12.793 28.574-28.574 28.574-15.781 0-28.574-12.793-28.574-28.574 0-0 0-0 0-0z"  horiz-adv-x="1024" />

    
    <glyph glyph-name="lie-b" unicode="&#58884;" d="M766.795-81.246h-35.266c-16.584 0-30.071 13.387-30.071 30.071 0 16.584 13.387 30.071 30.071 30.071h35.266c22.378 0 43.358 8.692 59.142 24.376 15.685 15.685 24.176 36.464 24.176 58.843v482.029h-676.24v-482.029c0-45.855 37.463-83.119 83.518-83.119h196.108c16.584 0 30.071-13.387 30.071-30.071s-13.487-29.971-30.071-29.971h-196.108c-79.223 0-143.66 64.337-143.66 143.36v512c0 16.584 13.387 30.071 30.071 30.071h736.381c16.584 0 30.071-13.387 30.071-30.071v-512c0-38.263-14.885-74.228-41.859-101.301-27.074-27.273-63.138-42.259-101.601-42.259zM993.474 544.144h-962.96c-16.584 0-30.071 13.387-30.071 30.071s13.387 30.071 30.071 30.071h962.96c16.584 0 30.071-13.387 30.071-30.071 0-16.684-13.487-30.071-30.071-30.071zM137.21 531.356c-6.494 0-12.987 2.098-18.482 6.394-13.087 10.29-15.485 29.072-5.195 42.259l182.622 233.672c24.176 31.070 61.040 48.852 103.499 50.251 39.861 1.399 80.621-12.388 114.788-38.662l346.761-218.387c14.086-8.891 18.282-27.373 9.391-41.46-8.891-14.086-27.373-18.282-41.46-9.391l-348.060 219.186c-0.799 0.5-1.698 1.199-2.498 1.798-23.277 18.182-50.651 27.873-77.025 26.974-24.176-0.699-44.856-10.49-57.844-27.173l-182.722-233.772c-5.894-7.692-14.786-11.689-23.777-11.689zM850.314 567.92c-12.987 0-24.976 8.492-28.872 21.579l-48.752 166.138c-0.3 1.299-0.599 2.498-0.799 3.796-1.798 11.389-6.893 21.279-14.286 27.673-4.096 3.596-10.69 7.593-18.482 6.394l-199.405-31.669c-16.384-2.597-31.869 8.592-34.366 24.976s8.592 31.869 24.976 34.366l199.405 31.769c23.677 3.796 48.353-3.696 67.634-20.38 17.483-15.185 29.371-37.164 33.767-61.54l48.253-164.34c4.695-15.984-4.396-32.668-20.38-37.364-3.097-0.999-5.794-1.399-8.692-1.399zM568.689 402.082h-339.868c-16.584 0-30.071 13.387-30.071 30.071s13.387 30.071 30.071 30.071h339.868c16.584 0 30.071-13.387 30.071-30.071s-13.487-30.071-30.071-30.071zM398.655 231.549h-169.834c-16.584 0-30.071 13.387-30.071 30.071 0 16.584 13.387 30.071 30.071 30.071h169.934c16.584 0 30.071-13.387 30.071-30.071-0.1-16.684-13.487-30.071-30.171-30.071z"  horiz-adv-x="1024" />

    
    <glyph glyph-name="shangyiye" unicode="&#58904;" d="M812.444444 456.732444H108.956444L367.018667 714.808889l-37.688889 37.688889L0.568889 423.751111l328.760889-328.760889 37.688889 37.688889L96.284444 403.427556h716.16c87.566222 0 158.805333-71.239111 158.805334-158.791112v-309.091555h53.319111V244.636444c0 116.949333-95.160889 212.096-212.124445 212.096z"  horiz-adv-x="1024" />

    
    <glyph glyph-name="shangxia" unicode="&#58891;" d="M836.8 262.4H187.2c-32 0-51.2-20.8-35.2-36.8 24-25.6 310.4-324.8 324.8-339.2 17.6-19.2 56-16 72 0C560-102.4 854.4 208 872 225.6c16 17.6-4.8 35.2-35.2 36.8zM187.2 505.6h649.6c30.4 0 51.2 19.2 35.2 36.8-17.6 17.6-312 328-324.8 340.8-14.4 16-52.8 17.6-72 0C462.4 867.2 176 568 152 542.4c-16-16 3.2-36.8 35.2-36.8z"  horiz-adv-x="1024" />

    
    <glyph glyph-name="shoujihao" unicode="&#58895;" d="M517.883-57.6c27.927 0 50.683 22.756 50.683 51.717 0 27.927-22.756 50.683-50.683 50.683s-51.717-22.756-51.717-50.683c1.034-28.961 23.79-51.717 51.717-51.717zM759.665 896h-495.33C206.371 896 160 850.489 160 793.6v-819.2c0-56.889 46.371-102.4 104.335-102.4h495.33C817.629-128 864-82.489 864-25.6V793.6C864 850.489 817.629 896 759.665 896z m1.16-972.8H274.682c-27.927 0-50.683 22.756-50.683 51.717V96h588.541v-121.083c-1.034-27.927-23.79-51.717-51.717-51.717zM800 166.917H224v614.4C224 809.244 246.232 832 273.516 832h474.947c27.284 0 49.516-22.756 49.516-50.683v-614.4H800z"  horiz-adv-x="1024" />

    
    <glyph glyph-name="shezhi" unicode="&#58931;" d="M704.808016-128c-19.734215 0-38.906057 8.154423-51.284675 21.817555-16.877611 18.500827-70.335095 66.602977-114.091628 66.602977-43.449783 0-97.731657-48.376946-113.324755-65.331244-12.353056-13.43307-31.390695-21.440509-50.926801-21.44051-9.304734 0-18.085437 1.776591-26.099266 5.30421l-1.405936 0.613499-133.007844 74.386744-1.322857 0.93303c-24.214036 16.941517-33.429301 50.102412-21.434119 77.102755 0.089469 0.21089 12.263588 28.304028 12.263588 53.923999 0 77.735426-63.241514 140.983331-140.989721 140.983331h-4.709883l-0.856342-0.012781c-22.271289 0-40.40146 19.78534-46.197747 50.402771-0.460124 2.447605-11.34973 60.525503-11.34973 106.269516 0 45.750404 10.883215 103.821912 11.34973 106.269517 5.860193 31.007258 24.386582 50.920411 47.047699 50.383599h4.709882c77.741817 0 140.989721 63.247905 140.989721 140.989721 0 25.607189-12.167729 53.693937-12.295541 53.975124-11.982401 26.987562-2.70962 60.135676 21.606666 77.032459l1.380372 0.958592 140.369832 77.096365 1.463451 0.619889c7.898799 3.367853 16.55808 5.080538 25.728611 5.080538 19.484981 0 38.567354-7.847674 51.035441-20.986775 16.615596-17.395251 69.127269-62.634406 111.631242-62.634406 42.107754 0 94.293506 44.344469 110.857977 61.43297 12.38501 12.870696 31.326789 20.577776 50.639224 20.577777 9.355859 0 18.174906-1.7702 26.201516-5.259476l1.425107-0.619889 135.576872-75.319774 1.335638-0.93303c24.252379-16.928736 33.499597-50.07685 21.491634-77.109146-0.10225-0.2045-12.269978-28.297638-12.269978-53.917608 0-77.741817 63.241514-140.989721 140.983331-140.989722h4.716272c22.629163 0.504858 41.174725-19.376341 47.041309-50.383599 0.460124-2.447605 11.343339-60.525503 11.343339-106.275907 0-45.744013-10.883215-103.828302-11.343339-106.269517-5.866583-31.007258-24.412145-50.850114-47.041309-50.389989h-4.716272c-77.729035 0-140.983331-63.241514-140.983331-140.983331 0-25.619971 12.167729-53.693937 12.295541-53.981515 11.96962-26.962 2.722401-60.110113-21.555541-77.038849l-1.3612-0.933029-137.858321-76.201679-1.437888-0.62628c-7.886017-3.399807-16.506955-5.118882-25.619971-5.118882z m0.325922 52.198533c0.639061-0.408999 2.422043-1.124748 4.307273-1.124748l0.210891 0.006391 132.471033 73.217262c-3.195307 7.432284-17.817031 43.488127-17.817032 81.084108 0 112.468412 88.586688 204.633844 199.636385 210.404568 1.597653 8.831828 10.276107 58.467726 10.276107 95.725004 0 37.250888-8.678454 86.880394-10.276107 95.725004-111.049696 5.770724-199.636384 97.936156-199.636385 210.404568 0 37.659887 14.672849 73.760464 17.848985 81.128842l-130.342959 72.405654a7.400331 7.400331 0 0 1-0.536812 0.019172c-2.223934 0-4.300883-0.805217-4.978288-1.271732-2.198371-2.249496-21.082635-21.408556-48.217181-40.497319-40.165008-28.259294-78.150816-42.58705-112.896583-42.587051-35.08447 0-73.370637 14.608943-113.80405 43.424221-27.300702 19.459419-46.280825 38.982744-48.472806 41.270584-0.690186 0.479296-2.792698 1.310076-5.035803 1.310076l-0.466515-0.012782-134.982545-74.13112c3.233651-7.521752 17.810641-43.513689 17.810641-81.045764 0-112.468412-88.593079-204.633844-199.649165-210.404568-1.597653-8.831828-10.276107-58.474116-10.276107-95.725004 0-37.238107 8.672063-86.880394 10.276107-95.725004 111.056086-5.764334 199.642775-97.942547 199.642774-210.404568 0-37.730184-14.723974-73.901058-17.855374-81.179967l127.76115-71.434281a9.074672 9.074672 0 0 1 4.543727 1.073623c2.39009 2.569027 21.472462 22.769757 48.958492 42.912972 40.970225 30.016713 79.901844 45.245546 115.714844 45.245546 36.164483 0 75.38368-15.51641 116.596748-46.11467 27.645795-20.520261 46.804855-41.098037 49.188555-43.699017zM539.891837 196.489806c-103.527943 0-187.756233 84.22829-187.756233 187.756233s84.22829 187.756233 187.756233 187.756233c103.534334 0 187.756233-84.22829 187.756233-187.756233s-84.221899-187.756233-187.756233-187.756233z m0 321.236983c-73.600699 0-133.48075-59.880051-133.48075-133.48075 0-73.60709 59.880051-133.48075 133.48075-133.480751 73.600699 0 133.48075 59.873661 133.48075 133.480751 0 73.600699-59.873661 133.48075-133.48075 133.48075z"  horiz-adv-x="1084" />

    
    <glyph glyph-name="shouye" unicode="&#58935;" d="M992.112767 452.883912L603.442067 857.054206c-24.107943 25.037805-56.430614 38.945794-91.000925 38.945794-34.581721 0-66.898686-13.776782-91.012334-38.945794L32.89502 452.883912c-40.138071-41.72397-34.981048-77.766086-28.352219-92.866352 4.763401-10.730488 20.668026-40.001159 66.636272-40.001159h56.961148v-310.904614c0-69.112099 48.620918-134.248042 118.257847-136.986284v-0.125503h75.181869c70.321489 0 93.533799 46.116567 94.611982 113.967934l0.205369 0.131207v214.963443c0 35.243462-5.29964 54.975922 30.736771 54.975923h130.751078c36.025003 0 30.668316-19.612662 30.668316-54.975923l0.045637-133.466502h-0.045637v-76.625151c0-3.56542-0.045637-8.066406 0.068456-13.22343v-0.912747l0.022819-0.017114c0.872815-36.720972 9.754989-104.811935 94.606277-104.811935h75.187575v0.125502c69.665452 2.704014 118.309189 67.857071 118.309188 136.986285v310.904614h56.961148c45.968245 0 61.867166 29.396174 66.636272 40.001158 6.611715 15.094562 11.774443 51.136678-28.232421 92.860648zM965.101146 384h-132.485298v-374.893918c0-35.243462-22.784459-72.991276-58.820871-72.991275h-73.932547c-21.443861 0.878519-26.486791 9.880492-27.410948 25.944847v21.786142c0.034228 2.298983 0.068456 4.655012 0.068456 7.11943v76.625152h-0.068456v133.466502c0 70.606723-22.658956 118.965226-94.720371 118.965226H446.997147c-72.061414 0-94.720371-48.369912-94.720371-118.965226v-239.864336c-1.106706-16.355294-6.760036-25.208945-30.828046-25.208945H250.853416c-35.990774 0.062751-58.729596 37.776337-58.729596 72.985571v374.893918H59.632817c-1.192276 0 0.929862-0.131207 0 0 2.25905 3.844949 14.455638 18.152266 20.810643 24.769685l388.6707 403.907878c11.529142 12.185179 27.941483 19.47575 43.851812 19.338838 15.89892 0.131207 31.261602-7.284866 42.916246-19.338838l388.539493-403.770966"  horiz-adv-x="1024" />

    
    <glyph glyph-name="shangyiye1" unicode="&#59029;" d="M721.594 777.823c12.379-12.379 12.379-32.283 0-44.661l-349.647-349.647 349.647-349.647c12.379-12.379 12.379-32.283 0-44.661-5.705-5.735-13.603-9.284-22.331-9.284-8.726 0-16.625 3.549-22.33 9.283l-371.979 371.979c-5.735 5.705-9.284 13.603-9.284 22.331 0 8.726 3.549 16.625 9.283 22.33l371.979 371.979c12.379 12.379 32.404 12.379 44.661 0z"  horiz-adv-x="1024" />

    
    <glyph glyph-name="shaixuan" unicode="&#58896;" d="M325.686916-82.143692V476.795561L46.217289 802.843458c-11.085629 11.085629-23.289136 22.334281-23.289135 46.578271C22.928154 873.595852 53.809548 896 69.506425 896h884.963861C991.034229 896 1001.071846 871.429962 1001.071846 849.421729c0-6.171621-12.203507-35.515932-23.289135-46.578271L698.313084 476.795561v-372.626169c0-61.506607-69.867407-60.481885-69.867406 0V500.084696c0 10.270509 11.807592 21.146535 19.12038 28.412745L907.915304 826.132593H139.373832l232.891355-302.758761c7.289499-7.219632 23.289136-36.284473 23.289135-46.578271v-558.939253c0-60.388728-69.867407-60.179126-69.867406 0z"  horiz-adv-x="1024" />

    
    <glyph glyph-name="ziyuan" unicode="&#58914;" d="M511.082255 207.519498a343.781264 343.781264 0 1 0 343.781264 343.781264A344.240251 344.240251 0 0 0 511.082255 207.519498z m0 621.009413a275.392201 275.392201 0 1 1 275.392201-275.392201 275.392201 275.392201 0 0 1-275.392201 275.851188zM69.077773-128H65.864864a33.506051 33.506051 0 0 0-30.293142 36.259973 481.936351 481.936351 0 0 0 298.800538 410.334379 33.506051 33.506051 0 0 0 27.080233-61.045271 413.088301 413.088301 0 0 1-259.327656-355.255939 33.506051 33.506051 0 0 0-33.047064-30.293142zM953.545725-128a33.506051 33.506051 0 0 0-33.047064 30.293142 413.088301 413.088301 0 0 1-156.055581 288.243837 33.506051 33.506051 0 1 0 45.8987 50.029583 472.756611 472.756611 0 0 0 178.086957-332.306589 33.506051 33.506051 0 0 0-30.293142-36.259973z"  horiz-adv-x="1024" />

    
    <glyph glyph-name="lingdang" unicode="&#59584;" d="M512-64c49.6 0 88 38.4 88 88H424c0-49.6 38.4-88 88-88z m288.8 286.4V451.2c0 137.6-97.6 252.8-224.8 283.2v28.8c0 32-17.6 60.8-48 67.2-44 10.4-80-23.2-80-66.4v-30.4C320.8 704 223.2 588.8 223.2 451.2v-228.8L136 132.8v-44.8h752v44.8l-87.2 89.6z"  horiz-adv-x="1024" />

    
    <glyph glyph-name="zuji" unicode="&#983808;" d="M55.854545 630.690909m-55.854545 0a55.854545 55.854545 0 1 1 111.709091 0 55.854545 55.854545 0 1 1-111.709091 0ZM982.109091 188.509091c-9.309091 9.309091-130.327273 130.327273-134.981818 204.8v18.618182 18.618182c0 162.909091-158.254545 297.890909-353.745455 297.890909C297.890909 728.436364 139.636364 593.454545 139.636364 430.545455c0-88.436364 46.545455-176.872727 130.327272-232.727273 37.236364-23.272727 79.127273-41.890909 121.018182-55.854546 27.927273-4.654545 51.2-9.309091 79.127273-13.963636 37.236364-4.654545 69.818182-9.309091 102.4-23.272727 41.890909-18.618182 51.2-51.2 65.163636-88.436364 4.654545-13.963636 9.309091-23.272727 13.963637-37.236364 18.618182-41.890909 51.2-74.472727 88.436363-88.436363 65.163636-27.927273 134.981818-18.618182 190.836364 18.618182 55.854545 37.236364 88.436364 97.745455 88.436364 162.909091 4.654545 41.890909-9.309091 79.127273-37.236364 116.363636zM898.327273-34.909091c-23.272727-13.963636-46.545455-23.272727-69.818182-23.272727-18.618182 0-37.236364 4.654545-55.854546 9.309091-23.272727 9.309091-41.890909 27.927273-51.2 51.2-4.654545 13.963636-9.309091 23.272727-13.963636 37.236363-18.618182 46.545455-37.236364 97.745455-97.745454 130.327273-41.890909 18.618182-83.781818 23.272727-125.672728 27.927273-23.272727 4.654545-46.545455 4.654545-69.818182 9.309091-37.236364 9.309091-69.818182 23.272727-102.4 46.545454-65.163636 41.890909-102.4 107.054545-102.4 172.218182 0 125.672727 125.672727 228.072727 283.927273 228.072727s283.927273-102.4 283.927273-228.072727v-23.272727s-4.654545-93.090909 102.4-200.145455c9.309091-4.654545 23.272727-23.272727 32.581818-41.890909 4.654545-9.309091 9.309091-13.963636 9.309091-18.618182 18.618182-23.272727 27.927273-51.2 27.927273-79.127272 4.654545-37.236364-18.618182-74.472727-51.2-97.745455zM502.690909 826.181818L493.381818 896C349.090909 896 232.727273 849.454545 144.290909 765.672727l46.545455-51.2C274.618182 793.6 372.363636 830.836364 502.690909 826.181818z"  horiz-adv-x="1024" />

    
    <glyph glyph-name="wode" unicode="&#983821;" d="M740.072727 235.054545l41.890909 55.854546c-23.272727 18.618182-46.545455 32.581818-69.818181 46.545454-18.618182 9.309091-37.236364 18.618182-60.509091 27.927273 65.163636 51.2 102.4 130.327273 102.4 218.763637 0 158.254545-125.672727 283.927273-283.927273 283.927272s-279.272727-130.327273-279.272727-288.581818c0-93.090909 46.545455-172.218182 111.709091-223.418182C144.290909 290.909091 23.272727 141.963636 4.654545-34.909091c-4.654545-23.272727-4.654545-41.890909-4.654545-60.509091h69.818182c0 18.618182 0 32.581818 4.654545 51.2 23.272727 209.454545 204.8 367.709091 414.254546 367.709091 69.818182 0 134.981818-18.618182 195.490909-46.545454l55.854545-41.89091z m-349.090909 144.29091c-79.127273 32.581818-130.327273 107.054545-130.327273 200.145454 0 116.363636 97.745455 214.109091 214.109091 214.109091s214.109091-97.745455 214.109091-214.109091c0-88.436364-51.2-162.909091-125.672727-195.490909-23.272727 4.654545-51.2 4.654545-74.472727 4.654545-32.581818 0-65.163636 0-97.745455-9.30909zM898.327273 230.4c-18.618182 0-37.236364-4.654545-51.2-9.309091-13.963636 4.654545-32.581818 9.309091-51.2 9.309091-69.818182 0-125.672727-55.854545-125.672728-125.672727 0-37.236364 13.963636-69.818182 41.89091-93.090909l83.781818-79.127273c13.963636-13.963636 32.581818-18.618182 46.545454-18.618182 18.618182 0 32.581818 4.654545 46.545455 18.618182l51.2 51.2c9.309091 9.309091 18.618182 13.963636 23.272727 23.272727l9.309091 9.309091c27.927273 23.272727 41.890909 55.854545 41.890909 93.090909 9.309091 65.163636-46.545455 121.018182-116.363636 121.018182z m37.236363-172.218182l-9.309091-9.309091c-4.654545-9.309091-13.963636-13.963636-23.272727-23.272727l-51.2-51.2-83.781818 83.781818c-13.963636 13.963636-23.272727 27.927273-23.272727 46.545455 0 27.927273 23.272727 55.854545 55.854545 55.854545 23.272727 0 41.890909-13.963636 51.2-32.581818 9.309091 18.618182 27.927273 32.581818 51.2 32.581818 27.927273 0 55.854545-23.272727 55.854546-55.854545-4.654545-18.618182-13.963636-32.581818-23.272728-46.545455z"  horiz-adv-x="1024" />

    
    <glyph glyph-name="wode1" unicode="&#58926;" d="M414.47 602.87a37.78 37.78 0 1 1-37.78-37.76 37.77 37.77 0 0 1 37.78 37.76zM650 521.62a37.79 37.79 0 0 1-49.75-19.48c-17.69-40.46-51-65.59-86.94-65.59-36.17 0-69.59 25.38-87.21 66.23a37.78 37.78 0 0 1-69.38-29.9c14-32.46 35.34-60 61.71-79.67 28.24-21.05 61-32.18 94.88-32.18 33.66 0 66.33 11 94.47 31.87 26.28 19.47 47.62 46.79 61.7 79A37.75 37.75 0 0 1 650 521.62z m-32-557H179.04c-21 0.53-31.15 15.06-34.54 21.29a41.75 41.75 0 0 0 0.91 42.12l91.09 149.91a36.39 36.39 0 0 1-62.18 37.8l-91.1-149.87a113.8 113.8 0 0 1-2.6-114.78c19.66-36 55.76-58.13 96.58-59.17h440.86a36.39 36.39 0 0 1 0 72.77z m32 676a37.76 37.76 0 1 1 37.78-37.76A37.77 37.77 0 0 1 650 640.63z m212-273a370.5 370.5 0 1 1-81.15-122.22A368.14 368.14 0 0 1 862 367.59zM519.63 210.08a296.56 296.56 0 1 0 209.75 506.25c115.62-115.66 115.62-303.84 0-419.5a295.65 295.65 0 0 0-209.75-86.75zM943.5 65.87l-91.09 149.86a36.39 36.39 0 0 1-62.18-37.8l91.09-149.86a41.75 41.75 0 0 0 0.91-42.12c-3.39-6.2-13.5-20.66-34.34-21.28l-96.25-0.39a36.39 36.39 0 0 1 0.14-72.77h0.15l93.82 0.38H850.72c40.34 1.42 75.95 23.45 95.42 59.12a113.8 113.8 0 0 1-2.64 114.86z"  horiz-adv-x="1024" />

    
    <glyph glyph-name="wenda" unicode="&#59529;" d="M170.667 789.333h682.667c35.328 0 64-28.629 64-63.915v-541.44c0-35.328-28.565-55.979-64-55.979h-201.408l-109.504-117.461c-7.738-7.767-18.444-12.573-30.272-12.573-11.839 0-22.553 4.814-30.292 12.592l-110.039 117.442h-201.152c-35.328 0-64 20.715-64 55.979v541.44c-0 0.013-0 0.028-0 0.043 0 35.276 28.596 63.872 63.872 63.872 0.045 0 0.090-0 0.135-0zM618.667 341.333v-42.667h-213.333v42.667h213.333zM661.333 384h-298.667v-149.333h42.667v21.333h213.333v-21.333h42.667v149.333zM384 449.813v-23.147h256v23.147l82.24-47.488 21.333 36.971-231.573 133.291-231.573-133.291 21.333-36.971 82.24 47.488zM417.813 469.333l94.187 54.379 94.187-54.379h-188.373zM580.501 618.667h35.499l33.28-74.773 38.997 17.365-25.557 57.408h83.947v42.667h-141.525l13.141 22.763-36.949 21.333-64-110.848 36.949-21.333 26.24 45.419zM365.973 661.333l12.309 21.333-36.949 21.333-64-110.848 36.949-21.333 27.051 46.848h40.384l33.28-74.773 38.997 17.365-25.557 57.408h83.563v42.667h-146.027z"  horiz-adv-x="1024" />

    
    <glyph glyph-name="gaoxiao" unicode="&#59581;" d="M0 725.76A170.197333 170.197333 0 0 0 170.24 896h683.52A170.197333 170.197333 0 0 0 1024 725.76v-683.52A170.197333 170.197333 0 0 0 853.76-128H170.24A170.197333 170.197333 0 0 0 0 42.24V725.76z m523.093333 61.866667l-67.413333-11.946667c10.24-19.626667 20.48-40.96 29.013333-64.853333h-349.866666v-56.32h753.493333V710.826667H550.4c-8.533333 28.16-17.92 53.76-27.306667 76.8z m228.693334-785.066667c62.293333 0 93.866667 27.306667 93.866666 81.066667v298.666666H178.346667V0h58.88v328.533333h549.546666v-232.106666c0-27.306667-17.92-40.96-52.906666-40.96l-68.266667 2.56 14.506667-55.466667h71.68zM273.92 599.04v-165.546667H750.933333V599.04H273.92z m70.826667-325.12v-170.666667h335.36v170.666667H344.746667z m346.453333 207.36H333.653333V551.253333h357.546667v-69.973333z m-65.706667-331.946667H400.213333v78.506667h225.28v-78.506667z"  horiz-adv-x="1024" />

    
    <glyph glyph-name="dixiao" unicode="&#59582;" d="M0 725.76A170.197333 170.197333 0 0 0 170.24 896h683.52A170.197333 170.197333 0 0 0 1024 725.76v-683.52A170.197333 170.197333 0 0 0 853.76-128H170.24A170.197333 170.197333 0 0 0 0 42.24V725.76z m454.826667-316.16h198.826666c4.266667-43.52 10.24-82.773333 17.92-117.76 18.773333-91.306667 43.52-160.426667 74.24-207.36 29.866667-45.226667 58.026667-68.266667 84.48-68.266667 30.72 0 54.613333 62.293333 70.826667 185.173334l-51.2 28.16c-8.533333-93.866667-18.773333-140.8-29.866667-141.653334-11.093333 0-25.6 17.92-44.373333 53.76-19.626667 38.4-36.693333 95.573333-50.346667 171.52-5.12 27.306667-10.24 59.733333-13.653333 96.426667h177.493333v58.88h-182.613333c-3.413333 58.88-5.973333 128-6.826667 208.213333 58.026667 13.653333 107.52 27.306667 150.186667 41.813334L815.786667 768c-99.84-34.133333-239.786667-64.853333-419.84-92.16v-562.346667c0-16.213333-9.386667-27.306667-27.306667-33.28l16.213333-52.906666c59.733333 19.626667 112.64 38.4 157.013334 56.32l-10.24 53.76c-24.746667-11.946667-50.346667-23.893333-76.8-34.133334V409.6z m140.8-219.306667l-42.666667-30.72c43.52-55.466667 79.36-107.52 107.52-156.16l46.933333 31.573334c-26.453333 45.226667-64 97.28-111.786666 155.306666zM313.173333 783.36c-40.96-131.413333-107.52-248.32-198.826666-349.866667l19.626666-64.853333c34.133333 35.84 64.853333 72.533333 93.866667 111.786667v-482.133334h59.733333V573.44c32.426667 58.026667 59.733333 119.466667 81.066667 184.32l-55.466667 25.6z m327.68-119.466667c0-71.68 2.56-137.386667 7.68-195.413333h-193.706666V629.76c67.413333 11.093333 129.706667 22.186667 186.026666 34.133333z"  horiz-adv-x="1024" />

    
    <glyph glyph-name="wenda1" unicode="&#59597;" d="M170.666667 789.333333h682.666666c35.328 0 64-28.629333 64-63.914666v-541.44C917.333333 148.650667 888.768 128 853.333333 128h-201.408l-109.504-117.461333a42.730667 42.730667 0 0 0-60.565333 0.021333L371.818667 128H170.666667c-35.328 0-64 20.714667-64 55.978667V725.418667A63.872 63.872 0 0 0 170.666667 789.333333z m170.666666-554.666666V576h-42.666666v-341.333333h42.666666z m341.333334 42.666666h-85.333334v-42.666666h128V682.666667H426.666667v-42.666667h256v-362.666667z m-234.666667 106.666667v128h128v-128h-128z m-42.666667 170.666667v-213.333334h213.333334V554.666667H405.333333z m-86.613333 148.8l-30.186667-30.165334 75.434667-75.434666 30.165333 30.165333-75.434666 75.434667z"  horiz-adv-x="1024" />

    
    <glyph glyph-name="wallet_icon" unicode="&#58980;" d="M900.89 828.44h-777.78c-61.337-0.068-111.042-49.773-111.11-111.104l-0-666.666c0.063-61.339 49.771-111.047 111.104-111.11l777.786-0c61.339 0.063 111.047 49.771 111.11 111.104l0 666.666c-0.068 61.337-49.773 111.042-111.104 111.11zM956.45 300.66h-444.45c-30.671 0.034-55.526 24.889-55.56 55.557l-0 55.563c0.040 30.667 24.892 55.516 55.557 55.55l444.443 0zM512 522.89c-61.337-0.068-111.042-49.773-111.11-111.104l-0-55.566c0.068-61.337 49.773-111.042 111.104-111.11l444.446-0v-194.44c-0.040-30.669-24.891-55.52-55.556-55.56l-777.774-0c-30.669 0.040-55.52 24.891-55.56 55.556l-0 666.664c0.034 30.671 24.889 55.526 55.557 55.56l777.783 0c30.671-0.034 55.526-24.889 55.56-55.557l0-194.443zM484.22 384c0-0 0-0 0-0 0-30.685 24.875-55.56 55.56-55.56 30.685 0 55.56 24.875 55.56 55.56 0 0 0 0 0 0 0 30.685-24.875 55.56-55.56 55.56-30.685 0-55.56-24.875-55.56-55.56z"  horiz-adv-x="1024" />

    
    <glyph glyph-name="qinglihuancun" unicode="&#58902;" d="M1010 419.8c0 12.8-1 25.4-2.2 38.2v0.8c-0.4 11.8-1 23.4-2.6 35-2.6 20.8-5.4 41.6-9.6 62-5.6 27.4-11.6 54.8-19.2 81.6-9.4 33.6-22.8 65.6-40.4 95.8-16 27.8-36.2 51.4-61.8 70.6-18.6 14-38.8 25-60 34.8-24.8 11.4-50.6 20.4-76.8 27.6C699 876.6 660 884.4 620.2 888c-23.2 2.2-46.6 5-70 5.6-12.2 0.4-24.4 0.4-36.6 0.2-9.8 0.2-19.4 0.2-29.2 0-9.6-0.2-19.4-0.8-29-1.6-13.4-0.6-26.8-1.8-40.2-3.2-6.2-0.6-12.6-1.4-18.8-2.2-6.8-0.8-13.8-1.6-20.6-2.8-5-0.6-9.8-1.4-14.8-2.2-32.8-4.8-64.6-12.6-96-22.4C232.2 849 200.8 836 171.4 818c-22.6-13.6-43.2-30-59.6-50.6-16-20-28.8-42-39.4-65.4-12.8-27.8-22.8-56.8-30.6-86.4-12.4-46.2-19.4-93.2-24-140.6-2.2-23.4-3-47-3.6-70.4-0.2-6.6-0.2-13.2 0-19.6 0-6.6-0.2-13.2 0-19.6 0.6-23.4 1.4-47 3.6-70.4 4.4-47.4 11.6-94.4 24-140.6 8-29.6 17.8-58.4 30.6-86.4 10.8-23.2 23.6-45.4 39.4-65.4 16.6-20.6 37-37 59.6-50.8 29.4-18 60.8-31 93.6-41.4 31.4-9.8 63.4-17.8 96-22.4 5-0.8 9.8-1.4 14.8-2.2 6.8-1.2 13.6-2 20.6-2.8 6.2-0.8 12.6-1.6 18.8-2.2 13.4-1.4 26.8-2.4 40.2-3.2 9.6-0.8 19.4-1.2 29-1.6 9.8-0.2 19.4-0.2 29.2 0 12.2-0.2 24.4-0.2 36.6 0.2 23.4 0.6 46.6 3.6 70 5.6 39.8 3.6 78.8 11.4 117.4 21.8 26.4 7 52 16 76.8 27.6 21 9.8 41.2 21 60 34.8 25.6 19.2 46 42.8 61.8 70.6 17.4 30.4 31 62.4 40.4 95.8 7.4 26.8 13.6 54.2 19.2 81.6 4.2 20.4 6.8 41.2 9.6 62 1.6 11.6 2.2 23.4 2.6 35v0.8c1.2 12.8 2.2 25.4 2.2 38.2 0 11.6 0 23.2-0.2 34.8v35zM293.2 480c-0.2 6.6 3.2 13 8.8 16.6 3.4 2.2 7.2 3.4 11.2 3.4l133.8-0.4-0.4 163.6c-0.2 8 4.6 15.4 12.2 18.4 2.4 1 5.2 1.6 7.8 1.6l91-0.4h0.4c11 0 19.6-9 19.6-20v-1.4l0.4-162 134-0.4c11 0 20-9 20-20v-1.2l0.2-101.4-438.6 1.2-0.4 102.4z m439.8-361.6c0-0.4 0-0.8-0.2-1.2v-0.8c0-0.4-0.2-0.8-0.4-1.2l-0.2-0.8c-0.2-0.4-0.4-0.8-0.4-1.2-0.2-0.2-0.2-0.4-0.2-0.6-0.2-0.4-0.4-1-0.6-1.4 0 0 0-0.2-0.2-0.4-3.4-6.4-10.2-10.4-17.6-10.4h-75.4v1.6l-0.2 49.2h-39.8l0.2-49.2v-1.6l-63.8 0.2-0.2 50.6h-39.8l0.2-50.4-65.2 0.2-0.2 50.4h-39.8l0.2-50.2h-74.8c-8 0-15.4 4.8-18.4 12.2-1 2.4-1.6 5.2-1.6 7.8v30h-0.2V206l-0.2 60.6h0.2V340h439v-152.2l0.2-67.4v-1c-0.6-0.4-0.6-0.6-0.6-1z"  horiz-adv-x="1024" />

    
    <glyph glyph-name="fanhuidingbu" unicode="&#58915;" d="M951.1 342.3L561.7 787.6h365.9c12.4 0 22.4 10 22.4 22.4 0 12.4-10 22.4-22.4 22.4H97.9c-12.4 0-22.4-10-22.4-22.4 0-12.4 10-22.4 22.4-22.4h364.3L73.5 342.3c-8.2-9.3-7.2-23.5 2.1-31.7s23.5-7.2 31.7 2.1l382.2 437.8v-792.3c0-12.4 10-22.4 22.4-22.4 12.4 0 22.4 10 22.4 22.4V750.6l383-437.9c8.2-9.3 22.3-10.3 31.7-2.1 9.4 8.2 10.3 22.4 2.1 31.7z"  horiz-adv-x="1024" />

    
    <glyph glyph-name="daipingjia" unicode="&#58938;" d="M865.947826-128H109.078261c-37.843478 0-66.782609 28.93913-66.782609 66.782609V829.217391c0 37.843478 28.93913 66.782609 66.782609 66.782609h623.304348c13.356522 0 22.26087-8.904348 22.260869-22.26087s-8.904348-22.26087-22.260869-22.260869H109.078261c-13.356522 0-22.26087-8.904348-22.26087-22.26087v-890.434782c0-13.356522 8.904348-22.26087 22.26087-22.26087h756.869565c13.356522 0 22.26087 8.904348 22.26087 22.26087V497.530435c0 13.356522 8.904348 22.26087 22.260869 22.260869s22.26087-8.904348 22.26087-22.260869V-61.21739100000002c0-37.843478-28.93913-66.782609-66.782609-66.782609zM975.026087 818.086957c8.904348-8.904348 8.904348-22.26087 0-31.165218L601.043478 412.93913c-8.904348-8.904348-22.26087-8.904348-31.165217 0-8.904348 8.904348-8.904348 22.26087 0 31.165218L943.86087 818.086957c8.904348 8.904348 22.26087 8.904348 31.165217 0zM287.165217 628.869565h311.652174c13.356522 0 22.26087-8.904348 22.26087-22.260869s-8.904348-22.26087-22.26087-22.26087H287.165217c-13.356522 0-22.26087 8.904348-22.260869 22.26087s8.904348 22.26087 22.260869 22.260869z m0-200.347826h222.608696c13.356522 0 22.26087-8.904348 22.26087-22.260869s-8.904348-22.26087-22.26087-22.26087H287.165217c-13.356522 0-22.26087 8.904348-22.260869 22.26087s8.904348 22.26087 22.260869 22.260869z"  horiz-adv-x="1024" />

    
    <glyph glyph-name="daichengtuan" unicode="&#58885;" d="M732.106185 653.370761c-1.709995-105.681669-85.754731-189.721405-191.4414-191.4364-105.695669-1.709995-189.765405 88.324723-191.4394 191.4354C347.519391 759.061429 437.559108 843.136166 540.669785 844.80516c105.695669 1.709995 189.766405-88.329723 191.4354-191.435399 0.531998-32.982897 51.731838-33.033896 51.19984 0C781.41003 770.217394 698.52829 871.434077 582.678653 892.247012 465.70902 913.259946 354.303369 843.997163 312.263501 735.197504c-42.495867-109.987655 10.377967-235.98926 109.828656-293.55308 101.584682-58.802816 235.119263-30.043906 307.812035 60.123812 34.794891 43.160865 52.509835 96.408698 53.400833 151.601525 0.537998 33.033896-50.661841 32.982897-51.19984 0zM751.172125 388.089592c23.382927 2.599992 47.319852 1.422996 69.385783-4.776985-34.99489 49.023846-79.302751 90.873715-133.840581 120.779622-28.963909 15.88195-54.793828-28.333911-25.839919-44.205862 34.707891-19.02994 64.664797-43.493864 90.294717-71.796775z m-233.269269-324.052984H209.115824c7.229977 153.767518 70.931778 318.856 211.357338 395.854759 28.952909 15.87695 3.12299 60.087812-25.839919 44.205862-164.013486-89.926718-236.282259-287.327099-237.439256-465.660541-0.092-13.956956 11.714963-25.59992 25.59992-25.599919h352.396895c-6.122981 16.675948-10.996966 34.037893-17.289945 51.199839zM51.202319 175.19126c1.217996 116.673634 57.52782 231.479274 165.599481 283.420111 25.973919 12.482961 7.126978 57.839819-19.726938 46.786853l-0.03-0.016 24.907922-6.583979c-90.382717 73.44577-71.229777 218.556315 42.009869 257.222194 31.056903 10.602967 17.719944 60.066812-13.609958 49.366845-67.270789-22.973928-117.533632-76.221761-133.91758-145.806543C99.300169 586.810969 128.380078 509.211212 185.749898 462.595359c6.589979-5.355983 16.122949-10.199968 24.909922-6.58498l0.03 0.016-19.726939 46.785854C67.12027 443.292419 1.394476 308.571841 0.00248 175.19226c-0.342999-33.029896 50.856841-32.998897 51.199839 0z m479.438498-30.176906c1.689995 118.977627 95.056702 216.251322 214.280328 221.335306 118.501629 5.053984 219.876311-90.233717 228.191285-207.071351 8.396974-117.95363-82.87174-223.139301-199.719374-234.796264-117.287632-11.699963-226.153291 75.493763-241.149244 192.219398-1.209996 9.389971-1.469995 18.865941-1.602995 28.312911-0.470999 32.987897-51.670838 33.033896-51.19984 0 1.663995-117.057633 74.382767-217.604318 183.888424-257.811192 108.860659-39.965875 236.02526 1.622995 305.396042 92.61471 70.910778 93.019708 73.624769 223.1493 7.939975 319.675998C910.834625 396.235567 788.07801 437.727437 676.30836 406.981533 559.706725 374.911633 481.129972 263.914981 479.440977 145.014354c-0.470999-33.029896 50.728841-32.987897 51.19984 0zM842.860838 170.614274h-90.781716l25.59992-25.59992v137.659569c0 33.019896-51.19984 33.019896-51.199839 0v-137.659569c0-13.956956 11.642964-25.59992 25.599919-25.59992h90.781716c33.018896 0 33.018896 51.19984 0 51.19984z"  horiz-adv-x="1024" />

    
    <glyph glyph-name="pintuan" unicode="&#58893;" d="M701.407 647.393c-50.591 50.596-117.858 78.457-189.406 78.457-71.55 0-138.817-27.86-189.413-78.457-50.591-50.59-78.452-117.858-78.452-189.407 0-55.303 16.72-108.394 48.353-153.535 26.445-37.744 61.624-67.677 102.627-87.542l-42.234-143.695c-3.882-13.204 3.673-27.044 16.871-30.926 13.204-3.88 27.045 3.677 30.926 16.877l54.929 186.888-21.485 8.22c-40.794 15.603-75.659 42.842-100.835 78.766-25.732 36.722-39.335 79.925-39.335 124.947 0 58.24 22.681 112.999 63.866 154.177 41.183 41.184 95.941 63.866 154.182 63.866 58.239 0 112.997-22.682 154.18-63.866 41.185-41.183 63.862-95.937 63.862-154.177 0-45.022-13.599-88.225-39.331-124.947-25.176-35.924-60.046-63.163-100.835-78.766l-21.485-8.22 54.929-186.888c3.188-10.857 13.118-17.893 23.885-17.893 2.328 0 4.693 0.328 7.036 1.016 13.198 3.882 20.753 17.722 16.876 30.926L628.884 216.91c41.003 19.865 76.182 49.798 102.627 87.542 31.633 45.14 48.353 98.232 48.353 153.535 0 71.55-27.86 138.816-78.457 189.407z m0 0M178.607 293.856c-15.617 22.287-23.87 48.515-23.87 75.844 0 43.9 21.717 84.87 58.089 109.58 11.378 7.732 14.334 23.225 6.603 34.604-7.73 11.38-23.223 14.335-34.603 6.604-50.039-33.994-79.91-90.368-79.91-150.788 0-37.616 11.375-73.726 32.893-104.437 16.34-23.315 37.578-42.248 62.236-55.652l-46.657-135.304c-4.485-13.004 2.423-27.183 15.427-31.667a24.77 24.77 0 0 1 8.12-1.368c10.334 0 19.992 6.48 23.551 16.796l61.847 179.348-22.501 8.61c-24.765 9.473-45.936 26.013-61.225 47.83z m0 0M886.191 265.267c21.518 30.707 32.893 66.817 32.893 104.433 0 60.059-29.59 116.233-79.155 150.275-11.34 7.788-26.849 4.908-34.637-6.433-7.787-11.34-4.908-26.849 6.433-34.636 36.029-24.744 57.538-65.567 57.538-109.206 0-27.33-8.253-53.557-23.87-75.844-15.29-21.817-36.462-38.357-61.225-47.83l-22.501-8.61 61.847-179.348c3.559-10.316 13.217-16.796 23.551-16.796 2.69 0 5.43 0.441 8.12 1.368 13.004 4.484 19.912 18.663 15.427 31.667l-46.657 135.31c24.66 13.398 45.896 32.331 62.236 55.65z m0 0"  horiz-adv-x="1024" />

    
    <glyph glyph-name="xiangji" unicode="&#58958;" d="M121.6 40c-32 0-57.6 25.6-57.6 57.6V555.2c0 32 25.6 60.8 59.2 60.8H256c8 0 16 3.2 20.8 11.2l52.8 83.2c14.4 20.8 38.4 33.6 64 33.6h235.2c25.6 0 48-11.2 60.8-32l59.2-86.4c4.8-6.4 11.2-9.6 19.2-9.6h131.2c33.6-1.6 60.8-28.8 60.8-62.4v-456c0-16-6.4-30.4-17.6-41.6-11.2-11.2-25.6-17.6-41.6-17.6v16-16H121.6c1.6 1.6 1.6 1.6 0 1.6z m134.4 544H123.2c-14.4 0-27.2-12.8-27.2-28.8v-456c0-16 12.8-27.2 27.2-27.2h777.6c8 0 14.4 3.2 19.2 8s8 11.2 8 19.2V555.2c0 16-12.8 28.8-28.8 30.4h-129.6c-17.6-1.6-35.2 8-46.4 22.4l-59.2 88c-8 11.2-20.8 17.6-35.2 17.6H392c-14.4 0-28.8-6.4-36.8-19.2L304 609.6c-11.2-16-28.8-25.6-48-25.6zM507.2 129.6c-126.4 0-228.8 102.4-228.8 228.8s102.4 228.8 228.8 228.8S736 484.8 736 358.4s-102.4-228.8-228.8-228.8z m0 425.6c-108.8 0-196.8-88-196.8-196.8S400 161.6 507.2 161.6 704 249.6 704 358.4s-88 196.8-196.8 196.8zM507.2 200c-88 0-158.4 72-158.4 158.4s72 158.4 158.4 158.4c88 0 158.4-72 158.4-158.4s-70.4-158.4-158.4-158.4z m0 284.8c-70.4 0-126.4-57.6-126.4-126.4 0-70.4 57.6-126.4 126.4-126.4s126.4 57.6 126.4 126.4c1.6 70.4-56 126.4-126.4 126.4z"  horiz-adv-x="1024" />

    
    <glyph glyph-name="gouwuche" unicode="&#58917;" d="M447.36 0m-48 0a48 48 0 1 1 96 0 48 48 0 1 1-96 0ZM735.04 0m-48 0a48 48 0 1 1 96 0 48 48 0 1 1-96 0ZM974.72 653.76A101.12 101.12 0 0 1 896 688H248.64L224 791.68a32 32 0 0 1-32 24.32H64a32 32 0 0 1 0-64h102.72L192 648.96 288 204.8v-92.8a32 32 0 0 1 32-32h544a32 32 0 0 1 0 64H352v32h480a109.76 109.76 0 0 1 96 89.6l64 320a80.32 80.32 0 0 1-17.28 68.16zM928 598.4l-64-320c-4.16-19.2-22.4-38.72-32-38.72H345.6L263.36 624H896a40 40 0 0 0 30.4-10.56 16.64 16.64 0 0 0 1.6-15.04z"  horiz-adv-x="1024" />

    
    </font>
</defs>
</svg>
